<svg width="2111" height="252" viewBox="0 0 2111 252" fill="none" xmlns="http://www.w3.org/2000/svg">
<path d="M129.806 18.7158C129.407 19.3131 128.842 19.2136 128.111 18.4172C125.652 15.6297 120.733 12.8422 113.356 10.0548C105.978 7.26732 96.7396 5.87359 85.64 5.87359C77.5312 5.87359 68.625 6.63682 58.9211 8.16329C45.0964 10.4198 32.7672 15.3642 21.9334 22.9966C11.1661 30.6289 5.78244 38.0953 5.78244 45.3958C5.78244 46.3914 5.91537 47.3537 6.18123 48.2829C7.84285 54.9197 13.6585 58.2381 23.6283 58.2381C27.4832 58.2381 31.2385 57.7071 34.894 56.6452C39.2143 55.3843 43.6342 52.9618 48.1538 49.3779C51.7429 46.5241 54.1024 44.168 55.2323 42.3097C56.0963 40.8496 56.9936 40.2523 57.9241 40.5178C58.7217 40.6505 58.6552 41.4137 57.7247 42.8075C56.0631 45.3295 53.5042 48.0506 50.048 50.9708C45.1296 55.152 40.178 57.9062 35.1931 59.2336C31.1388 60.2955 27.0844 60.8264 23.0301 60.8264C9.60417 60.8264 1.99395 55.2183 0.199394 44.0021C0.0664649 43.1393 0 42.2433 0 41.3142C0 33.0182 5.25072 25.2531 15.7522 18.019C26.7189 10.3866 40.61 5.50856 57.4256 3.38478C64.6038 2.45562 71.5162 1.99104 78.1627 1.99104C92.0538 1.99104 104.051 3.88254 114.153 7.66553C122.063 10.6521 127.014 13.3732 129.008 15.8288C129.939 17.0234 130.205 17.9858 129.806 18.7158ZM100.495 14.0369C100.561 14.8333 100.03 15.3642 98.8997 15.6297C95.7758 16.3598 91.9209 18.4504 87.3348 21.9015C82.7487 25.2863 79.0932 28.837 76.3681 32.5536C70.9845 40.1196 64.0721 52.7959 55.6311 70.5826C52.5737 77.0203 49.9483 80.8364 47.755 82.0311C46.2928 82.8939 44.033 83.6571 40.9756 84.3208C37.9847 84.9845 35.6584 85.2831 33.9968 85.2168C32.9998 85.2168 32.5013 85.0176 32.5013 84.6194C32.5013 84.2876 32.9001 83.9557 33.6977 83.6239C37.4197 82.0974 40.9423 79.1109 44.2656 74.6642C48.4529 68.8902 53.4377 61.5233 59.2202 52.5636C64.6703 44.1348 69.0237 37.7303 72.2805 33.35C76.6007 27.6423 81.4194 22.9302 86.7366 19.2136C91.3227 15.9615 95.5432 13.9373 99.3982 13.1409C100.063 13.0082 100.428 13.3068 100.495 14.0369Z" fill="white" fill-opacity="0.3"/>
<path d="M163.641 4.3803C163.641 7.10139 162.112 10.9507 159.055 15.9284C156.329 20.375 153.339 24.2576 150.082 27.576C144.033 33.6819 138.118 38.029 132.336 40.6173C129.876 44.1348 127.617 47.3205 125.556 50.1743C131.538 45.4622 136.589 43.1061 140.71 43.1061C144.499 43.1061 146.393 44.7322 146.393 47.9842C146.393 51.1035 144.798 54.4883 141.607 58.1385C133.432 67.4301 129.079 73.8014 128.547 77.2526C128.481 77.8499 128.647 78.3476 129.046 78.7458C129.444 79.0777 130.109 79.1772 131.04 79.0445C133.565 78.7127 137.719 76.2902 143.502 71.7772C148.287 67.9942 152.541 64.1449 156.263 60.2291C156.795 59.5654 157.36 59.2336 157.958 59.2336C158.423 59.2336 158.722 59.4659 158.855 59.9305C158.988 60.4614 158.789 60.9924 158.257 61.5233C155.598 64.7753 151.577 68.4588 146.194 72.5736C137.487 79.1441 131.405 82.4957 127.949 82.6284C126.021 82.6284 124.293 82.0974 122.765 81.0355C121.236 79.9073 120.405 78.3808 120.272 76.4561C120.139 72.5404 122.964 68.1269 128.747 63.2157C137.985 55.4506 142.604 50.108 142.604 47.1878C142.604 45.9268 141.807 45.2963 140.212 45.2963C138.218 45.2963 135.194 46.6568 131.139 49.3779C124.626 53.7582 119.707 58.1717 116.384 62.6184C111.665 69.3216 106.68 76.0579 101.43 82.8275C100.831 82.9602 100.067 82.8607 99.1365 82.5288C98.1395 82.197 97.6742 81.832 97.7407 81.4338C97.8736 80.3719 102.559 73.6355 111.798 61.2247C114.988 56.9107 121.269 48.0174 130.641 34.5446C138.484 23.3284 144.864 14.5678 149.783 8.26284C153.638 3.35159 157.16 0.895971 160.351 0.895971C162.544 0.895971 163.641 2.05741 163.641 4.3803ZM159.354 4.87806C157.027 4.87806 151.876 10.9839 143.901 23.1957L135.426 35.8388C139.348 33.8478 143.734 30.463 148.586 25.6845C151.577 22.7643 154.302 19.28 156.761 15.2315C159.221 11.183 160.45 8.22966 160.45 6.37135C160.45 5.37582 160.085 4.87806 159.354 4.87806Z" fill="white" fill-opacity="0.3"/>
<path d="M209.162 59.4327C209.826 59.9636 209.66 60.8264 208.663 62.0211C205.473 65.8041 200.388 70.1512 193.41 75.0624C185.035 80.9692 177.491 83.9226 170.778 83.9226C168.253 83.9226 166.126 83.3916 164.398 82.3297C161.673 80.6041 160.31 77.9494 160.31 74.3655C160.31 68.4588 163.467 62.2534 169.781 55.7493C173.636 51.8336 177.923 48.6147 182.642 46.0927C187.361 43.5707 191.316 42.3097 194.506 42.3097C197.497 42.3097 198.993 43.2057 198.993 44.9976C198.993 46.7896 197.464 49.3779 194.407 52.7627C191.681 55.6829 188.824 58.2049 185.833 60.3287C180.715 63.9789 175.298 66.4014 169.582 67.596C168.917 69.6534 168.585 71.4785 168.585 73.0714C168.585 75.5934 169.416 77.4517 171.077 78.6463C172.54 79.6418 174.268 80.1396 176.262 80.1396C180.648 80.1396 185.866 77.9826 191.914 73.6687C197.763 69.4875 202.681 65.1072 206.669 60.5278C207.799 59.3332 208.63 58.9681 209.162 59.4327ZM194.905 44.4999C193.11 44.4999 190.518 45.4954 187.129 47.4864C183.54 49.6102 180.216 52.2318 177.159 55.3511C174.567 58.0058 172.407 61.2247 170.679 65.0076C175.198 63.813 179.751 61.6229 184.337 58.4372C187.262 56.3798 190.02 54.0237 192.612 51.369C195.271 48.7142 196.6 46.7896 196.6 45.5949C196.6 44.8649 196.035 44.4999 194.905 44.4999Z" fill="white" fill-opacity="0.3"/>
<path d="M297.335 61.7224C295.209 63.8462 292.915 66.0032 290.456 68.1933C287.997 70.3835 285.339 72.5404 282.48 74.6642C273.508 81.5001 266.03 84.2544 260.049 82.927C255.064 81.8652 252.571 78.6795 252.571 73.37C252.571 71.3126 253.103 69.3547 254.167 67.4964C255.496 65.3063 257.058 64.344 258.852 64.6094C259.583 63.9457 260.414 63.1493 261.345 62.2202C262.342 61.291 263.472 60.1959 264.734 58.9349C266.994 56.9439 269.719 54.2228 272.91 50.7717C273.308 50.108 273.74 48.847 274.206 46.9887C274.671 45.1304 275.369 43.5375 276.299 42.2102C277.496 40.4182 278.792 39.5223 280.187 39.5223C281.65 39.5223 282.381 40.3519 282.381 42.0111C282.381 43.6039 281.849 45.1304 280.786 46.5905C279.789 48.0506 278.326 49.6434 276.399 51.369C276.2 52.0327 276.465 54.1564 277.197 57.7403C277.662 59.7977 277.994 61.656 278.194 63.3152C278.393 64.9081 278.493 66.2686 278.493 67.3969C278.493 71.0471 277.496 74.1996 275.502 76.8544C276.831 76.0579 278.16 75.162 279.49 74.1664C280.819 73.1709 282.215 72.109 283.677 70.9808C288.728 66.8659 292.716 63.2157 295.641 60.03C296.039 59.5654 296.438 59.3332 296.837 59.3332C297.568 59.3332 297.934 59.6982 297.934 60.4282C297.934 60.8928 297.734 61.3242 297.335 61.7224ZM273.408 57.0435C273.408 56.4461 273.308 55.5834 273.109 54.4551L266.33 60.926C265.266 61.9879 263.405 63.7466 260.747 66.2023C260.946 66.7332 261.046 67.1978 261.046 67.596C261.046 68.9234 260.58 69.9521 259.65 70.6821C259.517 70.6821 258.753 71.014 257.357 71.6776C256.626 72.1422 256.061 72.7727 255.662 73.5691C255.529 74.1001 255.463 74.5647 255.463 74.9629C255.463 77.8167 256.892 79.4759 259.75 79.9405C261.079 80.2059 262.641 79.7082 264.435 78.4472C266.296 77.1862 268.024 75.2615 269.62 72.6732C272.145 68.3592 273.408 63.1493 273.408 57.0435Z" fill="white" fill-opacity="0.3"/>
<path d="M353.494 61.6229C350.636 65.074 346.149 69.0893 340.035 73.6687C331.261 80.1728 325.18 83.1925 321.79 82.7279C318.267 82.2634 316.473 80.1396 316.406 76.3566C314.213 78.2149 311.82 79.7414 309.228 80.936C306.171 82.3961 303.712 82.9934 301.851 82.7279C298.262 82.2634 296.467 80.1064 296.467 76.257C296.467 75.6597 296.533 75.0624 296.666 74.4651C297.265 71.2131 300.388 66.1359 306.038 59.2336C314.08 49.4111 318.533 44.2676 319.397 43.803C319.929 43.4712 320.56 43.3052 321.292 43.3052C322.156 43.2389 322.588 43.4712 322.588 44.0021C322.588 44.5994 321.358 46.69 318.899 50.2739C314.977 55.9152 312.618 59.3663 311.82 60.6273C308.763 65.4058 306.935 68.326 306.337 69.3879C305.008 71.9099 304.243 74.1333 304.044 76.0579C303.778 78.2481 304.376 79.3432 305.839 79.3432C306.37 79.3432 306.968 79.1772 307.633 78.8454C312.95 76.5889 319.497 70.3503 327.273 60.1296C331.062 54.8201 335.083 49.3779 339.337 43.803C339.868 43.4712 340.5 43.3052 341.231 43.3052C342.095 43.2389 342.527 43.4712 342.527 44.0021C342.527 44.5994 341.297 46.69 338.838 50.2739C334.917 55.8488 332.557 59.3 331.76 60.6273C327.041 67.9278 324.482 73.1377 324.083 76.257C323.751 78.2481 324.316 79.2436 325.778 79.2436C328.304 79.2436 332.956 76.4893 339.736 70.9808C345.784 66.1359 349.838 62.4193 351.899 59.8309C352.165 59.4991 352.53 59.3332 352.995 59.3332C353.793 59.3332 354.192 59.665 354.192 60.3287C354.192 60.7269 353.959 61.1583 353.494 61.6229Z" fill="white" fill-opacity="0.3"/>
<path d="M406.721 61.5233C404.063 64.7753 400.042 68.4588 394.658 72.5736C385.884 79.2768 379.803 82.6284 376.413 82.6284C374.486 82.6284 372.791 82.0974 371.329 81.0355C369.866 79.9737 369.069 78.4804 368.936 76.5557C368.604 72.5736 371.362 68.1269 377.211 63.2157C386.582 55.4506 391.268 50.1743 391.268 47.3869C391.268 46.0595 390.404 45.3958 388.676 45.3958C386.682 45.3958 383.658 46.7232 379.604 49.3779C373.09 53.7582 368.172 58.1717 364.848 62.6184C360.129 69.3216 355.145 76.0579 349.894 82.8275C349.296 82.9602 348.531 82.8607 347.601 82.5288C346.604 82.197 346.139 81.832 346.205 81.4338C346.338 80.3719 351.024 73.6355 360.262 61.2247C368.371 50.2075 372.824 44.3671 373.622 43.7034C373.954 43.438 374.785 43.3052 376.114 43.3052C377.443 43.2389 378.141 43.3716 378.208 43.7034C378.274 44.1017 376.879 46.2586 374.021 50.1743C380.002 45.4622 385.054 43.1061 389.174 43.1061C392.963 43.1061 394.857 44.7322 394.857 47.9842C394.857 51.1035 393.262 54.4883 390.072 58.1385C381.897 67.4301 377.543 73.8014 377.011 77.2526C376.945 77.8499 377.111 78.3476 377.51 78.7458C377.909 79.0777 378.573 79.1772 379.504 79.0445C382.03 78.7127 386.184 76.2902 391.966 71.7772C396.751 67.9942 401.005 64.1449 404.727 60.2291C405.259 59.5654 405.824 59.2336 406.422 59.2336C406.887 59.2336 407.186 59.4659 407.319 59.9305C407.452 60.4614 407.253 60.9924 406.721 61.5233Z" fill="white" fill-opacity="0.3"/>
<path d="M448.653 61.7224C446.526 63.8462 444.233 66.0032 441.774 68.1933C439.315 70.3835 436.656 72.5404 433.798 74.6642C424.826 81.5001 417.348 84.2544 411.366 82.927C406.382 81.8652 403.889 78.6795 403.889 73.37C403.889 71.3126 404.421 69.3547 405.484 67.4964C406.814 65.3063 408.376 64.344 410.17 64.6094C410.901 63.9457 411.732 63.1493 412.663 62.2202C413.66 61.291 414.789 60.1959 416.052 58.9349C418.312 56.9439 421.037 54.2228 424.227 50.7717C424.626 50.108 425.058 48.847 425.524 46.9887C425.989 45.1304 426.687 43.5375 427.617 42.2102C428.814 40.4182 430.11 39.5223 431.505 39.5223C432.968 39.5223 433.699 40.3519 433.699 42.0111C433.699 43.6039 433.167 45.1304 432.104 46.5905C431.107 48.0506 429.644 49.6434 427.717 51.369C427.517 52.0327 427.783 54.1564 428.514 57.7403C428.98 59.7977 429.312 61.656 429.511 63.3152C429.711 64.9081 429.81 66.2686 429.81 67.3969C429.81 71.0471 428.814 74.1996 426.82 76.8544C428.149 76.0579 429.478 75.162 430.807 74.1664C432.137 73.1709 433.533 72.109 434.995 70.9808C440.046 66.8659 444.034 63.2157 446.958 60.03C447.357 59.5654 447.756 59.3332 448.155 59.3332C448.886 59.3332 449.251 59.6982 449.251 60.4282C449.251 60.8928 449.052 61.3242 448.653 61.7224ZM424.726 57.0435C424.726 56.4461 424.626 55.5834 424.427 54.4551L417.647 60.926C416.584 61.9879 414.723 63.7466 412.064 66.2023C412.264 66.7332 412.363 67.1978 412.363 67.596C412.363 68.9234 411.898 69.9521 410.968 70.6821C410.835 70.6821 410.07 71.014 408.675 71.6776C407.944 72.1422 407.379 72.7727 406.98 73.5691C406.847 74.1001 406.78 74.5647 406.78 74.9629C406.78 77.8167 408.209 79.4759 411.067 79.9405C412.397 80.2059 413.959 79.7082 415.753 78.4472C417.614 77.1862 419.342 75.2615 420.937 72.6732C423.463 68.3592 424.726 63.1493 424.726 57.0435Z" fill="white" fill-opacity="0.3"/>
<path d="M499.627 59.4327C500.292 59.9636 500.126 60.8264 499.129 62.0211C495.939 65.8041 490.854 70.1512 483.875 75.0624C475.501 80.9692 467.957 83.9226 461.244 83.9226C458.718 83.9226 456.591 83.3916 454.863 82.3297C452.138 80.6041 450.776 77.9494 450.776 74.3655C450.776 68.4588 453.933 62.2534 460.247 55.7493C464.102 51.8336 468.389 48.6147 473.108 46.0927C477.827 43.5707 481.782 42.3097 484.972 42.3097C487.963 42.3097 489.458 43.2057 489.458 44.9976C489.458 46.7896 487.93 49.3779 484.872 52.7627C482.147 55.6829 479.289 58.2049 476.298 60.3287C471.18 63.9789 465.764 66.4014 460.048 67.596C459.383 69.6534 459.051 71.4785 459.051 73.0714C459.051 75.5934 459.881 77.4517 461.543 78.6463C463.005 79.6418 464.733 80.1396 466.727 80.1396C471.114 80.1396 476.331 77.9826 482.38 73.6687C488.229 69.4875 493.147 65.1072 497.135 60.5278C498.265 59.3332 499.096 58.9681 499.627 59.4327ZM485.371 44.4999C483.576 44.4999 480.984 45.4954 477.594 47.4864C474.005 49.6102 470.682 52.2318 467.625 55.3511C465.032 58.0058 462.872 61.2247 461.144 65.0076C465.664 63.813 470.217 61.6229 474.803 58.4372C477.727 56.3798 480.485 54.0237 483.078 51.369C485.736 48.7142 487.065 46.7896 487.065 45.5949C487.065 44.8649 486.501 44.4999 485.371 44.4999Z" fill="white" fill-opacity="0.3"/>
<path d="M540.224 21.2046C538.031 24.1248 533.744 30.1975 527.363 39.4227H534.641C535.439 39.4227 535.904 39.6218 536.037 40.02C536.104 40.4182 535.838 40.8496 535.24 41.3142C534.641 41.7788 533.944 42.0111 533.146 42.0111H525.569C524.439 43.803 522.611 46.5573 520.086 50.2739C511.512 63.083 506.859 71.744 506.128 76.257C505.729 78.2481 506.327 79.2436 507.923 79.2436C508.454 79.2436 509.019 79.1109 509.617 78.8454C512.874 77.5844 516.928 74.9629 521.78 70.9808C527.829 66.1359 531.883 62.4193 533.943 59.8309C534.608 58.9681 535.306 58.9349 536.037 59.7314C536.37 60.1959 536.203 60.8264 535.539 61.6229C532.681 65.074 528.194 69.0893 522.08 73.6687C513.306 80.1728 507.225 83.1925 503.835 82.7279C500.179 82.2634 498.352 80.3055 498.352 76.8544C498.352 76.1243 498.451 75.3279 498.651 74.4651C499.448 71.0803 501.143 67.3637 503.735 63.3152C505.397 60.7933 508.919 55.9816 514.303 48.8802C515.433 47.3537 517.161 45.064 519.487 42.0111H512.509C511.645 42.0111 511.213 41.7788 511.213 41.3142C511.146 40.8496 511.412 40.4182 512.01 40.02C512.608 39.6218 513.306 39.4227 514.104 39.4227H521.481C529.656 28.8702 534.841 22.7311 537.034 21.0055C537.898 20.2755 538.895 20.1427 540.025 20.6073C540.357 20.7401 540.424 20.9392 540.224 21.2046Z" fill="white" fill-opacity="0.3"/>
<path d="M615.686 26.5805C616.351 26.5805 616.683 27.0118 616.683 27.8746C616.683 29.0029 616.184 30.4298 615.187 32.1554C613.127 35.872 611.166 37.7303 609.305 37.7303C608.641 37.7303 608.308 37.2657 608.308 36.3366C608.308 35.2083 608.807 33.8146 609.804 32.1554C611.931 28.4388 613.891 26.5805 615.686 26.5805ZM618.178 61.6229C615.32 65.074 610.834 69.0893 604.719 73.6687C595.946 80.1728 589.864 83.1925 586.475 82.7279C582.885 82.2634 581.091 80.2059 581.091 76.5557C581.091 75.8257 581.157 75.1288 581.29 74.4651C581.955 71.4785 585.079 66.4014 590.662 59.2336C592.656 56.7116 595.281 53.6255 598.538 49.9752C601.662 46.5905 603.622 44.5994 604.42 44.0021C604.686 43.803 605.118 43.6703 605.716 43.6039C606.381 43.4712 606.913 43.4712 607.311 43.6039C607.71 43.6703 607.81 43.8694 607.61 44.2012C605.417 47.3205 601.695 52.7959 596.444 60.6273C591.725 67.9278 589.166 73.1377 588.768 76.257C588.435 78.2481 589 79.2436 590.463 79.2436C592.988 79.2436 597.641 76.4893 604.42 70.9808C610.468 66.1359 614.523 62.4193 616.583 59.8309C616.849 59.4991 617.215 59.3332 617.68 59.3332C618.477 59.3332 618.876 59.665 618.876 60.3287C618.876 60.7269 618.644 61.1583 618.178 61.6229Z" fill="white" fill-opacity="0.3"/>
<path d="M660.121 61.7224C657.994 63.8462 655.701 66.0032 653.241 68.1933C650.782 70.3835 648.124 72.5404 645.266 74.6642C636.293 81.5001 628.816 84.2544 622.834 82.927C617.849 81.8652 615.356 78.6795 615.356 73.37C615.356 71.3126 615.888 69.3547 616.952 67.4964C618.281 65.3063 619.843 64.344 621.637 64.6094C622.368 63.9457 623.199 63.1493 624.13 62.2202C625.127 61.291 626.257 60.1959 627.519 58.9349C629.779 56.9439 632.504 54.2228 635.695 50.7717C636.093 50.108 636.525 48.847 636.991 46.9887C637.456 45.1304 638.154 43.5375 639.084 42.2102C640.281 40.4182 641.577 39.5223 642.973 39.5223C644.435 39.5223 645.166 40.3519 645.166 42.0111C645.166 43.6039 644.634 45.1304 643.571 46.5905C642.574 48.0506 641.112 49.6434 639.184 51.369C638.985 52.0327 639.251 54.1564 639.982 57.7403C640.447 59.7977 640.779 61.656 640.979 63.3152C641.178 64.9081 641.278 66.2686 641.278 67.3969C641.278 71.0471 640.281 74.1996 638.287 76.8544C639.616 76.0579 640.945 75.162 642.275 74.1664C643.604 73.1709 645 72.109 646.462 70.9808C651.513 66.8659 655.501 63.2157 658.426 60.03C658.824 59.5654 659.223 59.3332 659.622 59.3332C660.353 59.3332 660.719 59.6982 660.719 60.4282C660.719 60.8928 660.519 61.3242 660.121 61.7224ZM636.193 57.0435C636.193 56.4461 636.094 55.5834 635.894 54.4551L629.115 60.926C628.051 61.9879 626.19 63.7466 623.532 66.2023C623.731 66.7332 623.831 67.1978 623.831 67.596C623.831 68.9234 623.365 69.9521 622.435 70.6821C622.302 70.6821 621.538 71.014 620.142 71.6776C619.411 72.1422 618.846 72.7727 618.447 73.5691C618.314 74.1001 618.248 74.5647 618.248 74.9629C618.248 77.8167 619.677 79.4759 622.535 79.9405C623.864 80.2059 625.426 79.7082 627.22 78.4472C629.081 77.1862 630.81 75.2615 632.405 72.6732C634.93 68.3592 636.193 63.1493 636.193 57.0435Z" fill="white" fill-opacity="0.3"/>
<path d="M747.505 21.2046C745.312 24.1248 741.025 30.1975 734.644 39.4227H741.922C742.72 39.4227 743.185 39.6218 743.318 40.02C743.384 40.4182 743.119 40.8496 742.52 41.3142C741.922 41.7788 741.224 42.0111 740.427 42.0111H732.85C731.72 43.803 729.892 46.5573 727.366 50.2739C718.792 63.083 714.14 71.744 713.409 76.257C713.01 78.2481 713.608 79.2436 715.203 79.2436C715.735 79.2436 716.3 79.1109 716.898 78.8454C720.155 77.5844 724.209 74.9629 729.061 70.9808C735.109 66.1359 739.164 62.4193 741.224 59.8309C741.889 58.9681 742.587 58.9349 743.318 59.7314C743.65 60.1959 743.484 60.8264 742.819 61.6229C739.961 65.074 735.475 69.0893 729.36 73.6687C720.587 80.1728 714.505 83.1925 711.116 82.7279C707.46 82.2634 705.632 80.3055 705.632 76.8544C705.632 76.1243 705.732 75.3279 705.931 74.4651C706.729 71.0803 708.424 67.3637 711.016 63.3152C712.678 60.7933 716.2 55.9816 721.584 48.8802C722.714 47.3537 724.442 45.064 726.768 42.0111H719.789C718.925 42.0111 718.493 41.7788 718.493 41.3142C718.427 40.8496 718.693 40.4182 719.291 40.02C719.889 39.6218 720.587 39.4227 721.385 39.4227H728.762C736.937 28.8702 742.122 22.7311 744.315 21.0055C745.179 20.2755 746.176 20.1427 747.306 20.6073C747.638 20.7401 747.705 20.9392 747.505 21.2046Z" fill="white" fill-opacity="0.3"/>
<path d="M801.411 4.3803C801.411 7.10139 799.882 10.9507 796.825 15.9284C794.1 20.375 791.109 24.2576 787.852 27.576C781.804 33.6819 775.889 38.029 770.106 40.6173C767.647 44.1348 765.387 47.3205 763.327 50.1743C769.308 45.4622 774.36 43.1061 778.481 43.1061C782.269 43.1061 784.163 44.7322 784.163 47.9842C784.163 51.1035 782.568 54.4883 779.378 58.1385C771.203 67.4301 766.849 73.8014 766.318 77.2526C766.251 77.8499 766.417 78.3476 766.816 78.7458C767.215 79.0777 767.88 79.1772 768.81 79.0445C771.336 78.7127 775.49 76.2902 781.272 71.7772C786.058 67.9942 790.311 64.1449 794.033 60.2291C794.565 59.5654 795.13 59.2336 795.728 59.2336C796.194 59.2336 796.493 59.4659 796.626 59.9305C796.758 60.4614 796.559 60.9924 796.027 61.5233C793.369 64.7753 789.348 68.4588 783.964 72.5736C775.257 79.1441 769.176 82.4957 765.719 82.6284C763.792 82.6284 762.064 82.0974 760.535 81.0355C759.006 79.9073 758.176 78.3808 758.043 76.4561C757.91 72.5404 760.735 68.1269 766.517 63.2157C775.756 55.4506 780.375 50.108 780.375 47.1878C780.375 45.9268 779.577 45.2963 777.982 45.2963C775.988 45.2963 772.964 46.6568 768.91 49.3779C762.396 53.7582 757.478 58.1717 754.155 62.6184C749.436 69.3216 744.451 76.0579 739.2 82.8275C738.602 82.9602 737.837 82.8607 736.907 82.5288C735.91 82.197 735.445 81.832 735.511 81.4338C735.644 80.3719 740.33 73.6355 749.568 61.2247C752.759 56.9107 759.04 48.0174 768.411 34.5446C776.254 23.3284 782.635 14.5678 787.553 8.26284C791.408 3.35159 794.931 0.895971 798.121 0.895971C800.314 0.895971 801.411 2.05741 801.411 4.3803ZM797.124 4.87806C794.798 4.87806 789.647 10.9839 781.671 23.1957L773.197 35.8388C777.118 33.8478 781.505 30.463 786.357 25.6845C789.348 22.7643 792.073 19.28 794.532 15.2315C796.991 11.183 798.221 8.22966 798.221 6.37135C798.221 5.37582 797.855 4.87806 797.124 4.87806Z" fill="white" fill-opacity="0.3"/>
<path d="M846.932 59.4327C847.597 59.9636 847.431 60.8264 846.434 62.0211C843.243 65.8041 838.159 70.1512 831.18 75.0624C822.805 80.9692 815.262 83.9226 808.549 83.9226C806.023 83.9226 803.896 83.3916 802.168 82.3297C799.443 80.6041 798.08 77.9494 798.08 74.3655C798.08 68.4588 801.238 62.2534 807.552 55.7493C811.407 51.8336 815.694 48.6147 820.413 46.0927C825.132 43.5707 829.086 42.3097 832.277 42.3097C835.268 42.3097 836.763 43.2057 836.763 44.9976C836.763 46.7896 835.234 49.3779 832.177 52.7627C829.452 55.6829 826.594 58.2049 823.603 60.3287C818.485 63.9789 813.068 66.4014 807.352 67.596C806.688 69.6534 806.355 71.4785 806.355 73.0714C806.355 75.5934 807.186 77.4517 808.848 78.6463C810.31 79.6418 812.038 80.1396 814.032 80.1396C818.419 80.1396 823.636 77.9826 829.685 73.6687C835.533 69.4875 840.452 65.1072 844.44 60.5278C845.57 59.3332 846.4 58.9681 846.932 59.4327ZM832.675 44.4999C830.881 44.4999 828.289 45.4954 824.899 47.4864C821.31 49.6102 817.987 52.2318 814.929 55.3511C812.337 58.0058 810.177 61.2247 808.449 65.0076C812.969 63.813 817.521 61.6229 822.107 58.4372C825.032 56.3798 827.79 54.0237 830.382 51.369C833.041 48.7142 834.37 46.7896 834.37 45.5949C834.37 44.8649 833.805 44.4999 832.675 44.4999Z" fill="white" fill-opacity="0.3"/>
<path d="M949.163 60.926C948.698 61.7888 946.903 63.6471 943.779 66.5009C940.722 69.2884 937.897 71.6444 935.305 73.5691C931.317 76.6221 927.728 78.1485 924.538 78.1485C923.408 78.1485 922.212 77.9826 920.949 77.6508C916.296 81.6992 911.943 83.7235 907.888 83.7235C905.562 83.7235 903.469 82.9934 901.608 81.5333C899.547 79.9405 898.517 77.2194 898.517 73.37C898.517 68.3924 900.212 61.9547 903.602 54.0569C906.725 46.7564 910.68 39.5554 915.465 32.454C921.514 23.4943 927.562 15.9947 933.61 9.95523C939.725 3.84936 944.378 0.79642 947.568 0.79642C949.163 0.79642 949.961 1.52647 949.961 2.98657C949.961 5.57493 947.634 10.453 942.982 17.6208C938.994 23.8594 934.341 30.1975 929.024 36.6352C919.919 47.6524 912.009 55.8156 905.296 61.1251C904.166 64.5099 903.602 67.4301 903.602 69.8857C903.602 74.1996 905.429 76.3566 909.085 76.3566C910.813 76.3566 912.807 75.7593 915.067 74.5647C912.807 72.4409 911.677 69.9189 911.677 66.9987C911.677 62.4856 913.771 57.6408 917.958 52.4641C922.145 47.221 926.332 44.5994 930.52 44.5994C931.583 44.5994 932.58 44.8317 933.511 45.2963C935.438 46.2918 936.402 48.2165 936.402 51.0703C936.402 54.6542 935.106 58.8686 932.514 63.7135C929.922 68.5583 926.798 72.5404 923.142 75.6597C923.674 75.7261 924.239 75.7593 924.837 75.7593C927.496 75.7593 930.453 74.4983 933.71 71.9763C939.492 67.596 943.879 63.5807 946.87 59.9305C947.269 59.4659 947.668 59.2336 948.066 59.2336C948.465 59.2336 948.798 59.4659 949.063 59.9305C949.329 60.3287 949.363 60.6605 949.163 60.926ZM944.976 6.07269C943.115 6.07269 939.991 8.36239 935.604 12.9418C930.553 18.1849 925.07 25.3195 919.154 34.3455C913.97 42.1106 909.982 49.3779 907.191 56.1475C913.239 50.7053 919.786 43.7034 926.831 35.142C939.592 19.4791 945.973 10.088 945.973 6.96866C945.973 6.37134 945.64 6.07269 944.976 6.07269ZM930.32 46.69C928.526 46.69 926.432 47.6524 924.039 49.577C921.713 51.4353 919.62 53.891 917.759 56.9439C915.565 60.5278 914.469 63.7798 914.469 66.7C914.469 69.222 915.432 71.3458 917.36 73.0714C919.287 71.744 921.148 70.1512 922.943 68.2929C925.07 66.1027 927.23 63.0498 929.423 59.1341C931.816 54.8865 933.012 51.6344 933.012 49.3779C933.012 47.586 932.115 46.69 930.32 46.69Z" fill="white" fill-opacity="0.3"/>
<path d="M999.613 59.4327C1000.28 59.9636 1000.11 60.8264 999.115 62.0211C995.924 65.8041 990.84 70.1512 983.861 75.0624C975.486 80.9692 967.943 83.9226 961.23 83.9226C958.704 83.9226 956.577 83.3916 954.849 82.3297C952.124 80.6041 950.761 77.9494 950.761 74.3655C950.761 68.4588 953.919 62.2534 960.233 55.7493C964.088 51.8336 968.375 48.6147 973.094 46.0927C977.813 43.5707 981.767 42.3097 984.958 42.3097C987.949 42.3097 989.444 43.2057 989.444 44.9976C989.444 46.7896 987.915 49.3779 984.858 52.7627C982.133 55.6829 979.275 58.2049 976.284 60.3287C971.166 63.9789 965.749 66.4014 960.033 67.596C959.369 69.6534 959.036 71.4785 959.036 73.0714C959.036 75.5934 959.867 77.4517 961.529 78.6463C962.991 79.6418 964.719 80.1396 966.713 80.1396C971.1 80.1396 976.317 77.9826 982.365 73.6687C988.214 69.4875 993.133 65.1072 997.121 60.5278C998.251 59.3332 999.081 58.9681 999.613 59.4327ZM985.356 44.4999C983.562 44.4999 980.97 45.4954 977.58 47.4864C973.991 49.6102 970.668 52.2318 967.61 55.3511C965.018 58.0058 962.858 61.2247 961.13 65.0076C965.65 63.813 970.202 61.6229 974.788 58.4372C977.713 56.3798 980.471 54.0237 983.063 51.369C985.722 48.7142 987.051 46.7896 987.051 45.5949C987.051 44.8649 986.486 44.4999 985.356 44.4999Z" fill="white" fill-opacity="0.3"/>
<path d="M1041.31 61.7224C1039.18 63.8462 1036.89 66.0032 1034.43 68.1933C1031.97 70.3835 1029.31 72.5404 1026.45 74.6642C1017.48 81.5001 1010 84.2544 1004.02 82.927C999.035 81.8652 996.543 78.6795 996.543 73.37C996.543 71.3126 997.074 69.3547 998.138 67.4964C999.467 65.3063 1001.03 64.344 1002.82 64.6094C1003.55 63.9457 1004.39 63.1493 1005.32 62.2202C1006.31 61.291 1007.44 60.1959 1008.71 58.9349C1010.97 56.9439 1013.69 54.2228 1016.88 50.7717C1017.28 50.108 1017.71 48.847 1018.18 46.9887C1018.64 45.1304 1019.34 43.5375 1020.27 42.2102C1021.47 40.4182 1022.76 39.5223 1024.16 39.5223C1025.62 39.5223 1026.35 40.3519 1026.35 42.0111C1026.35 43.6039 1025.82 45.1304 1024.76 46.5905C1023.76 48.0506 1022.3 49.6434 1020.37 51.369C1020.17 52.0327 1020.44 54.1564 1021.17 57.7403C1021.63 59.7977 1021.97 61.656 1022.16 63.3152C1022.36 64.9081 1022.46 66.2686 1022.46 67.3969C1022.46 71.0471 1021.47 74.1996 1019.47 76.8544C1020.8 76.0579 1022.13 75.162 1023.46 74.1664C1024.79 73.1709 1026.19 72.109 1027.65 70.9808C1032.7 66.8659 1036.69 63.2157 1039.61 60.03C1040.01 59.5654 1040.41 59.3332 1040.81 59.3332C1041.54 59.3332 1041.9 59.6982 1041.9 60.4282C1041.9 60.8928 1041.71 61.3242 1041.31 61.7224ZM1017.38 57.0435C1017.38 56.4461 1017.28 55.5834 1017.08 54.4551L1010.3 60.926C1009.24 61.9879 1007.38 63.7466 1004.72 66.2023C1004.92 66.7332 1005.02 67.1978 1005.02 67.596C1005.02 68.9234 1004.55 69.9521 1003.62 70.6821C1003.49 70.6821 1002.72 71.014 1001.33 71.6776C1000.6 72.1422 1000.03 72.7727 999.633 73.5691C999.5 74.1001 999.434 74.5647 999.434 74.9629C999.434 77.8167 1000.86 79.4759 1003.72 79.9405C1005.05 80.2059 1006.61 79.7082 1008.41 78.4472C1010.27 77.1862 1012 75.2615 1013.59 72.6732C1016.12 68.3592 1017.38 63.1493 1017.38 57.0435Z" fill="white" fill-opacity="0.3"/>
<path d="M1082.21 21.2046C1080.02 24.1248 1075.73 30.1975 1069.35 39.4227H1076.63C1077.43 39.4227 1077.89 39.6218 1078.02 40.02C1078.09 40.4182 1077.82 40.8496 1077.23 41.3142C1076.63 41.7788 1075.93 42.0111 1075.13 42.0111H1067.56C1066.43 43.803 1064.6 46.5573 1062.07 50.2739C1053.5 63.083 1048.85 71.744 1048.12 76.257C1047.72 78.2481 1048.31 79.2436 1049.91 79.2436C1050.44 79.2436 1051.01 79.1109 1051.6 78.8454C1054.86 77.5844 1058.92 74.9629 1063.77 70.9808C1069.82 66.1359 1073.87 62.4193 1075.93 59.8309C1076.6 58.9681 1077.29 58.9349 1078.02 59.7314C1078.36 60.1959 1078.19 60.8264 1077.53 61.6229C1074.67 65.074 1070.18 69.0893 1064.07 73.6687C1055.29 80.1728 1049.21 83.1925 1045.82 82.7279C1042.17 82.2634 1040.34 80.3055 1040.34 76.8544C1040.34 76.1243 1040.44 75.3279 1040.64 74.4651C1041.44 71.0803 1043.13 67.3637 1045.72 63.3152C1047.38 60.7933 1050.91 55.9816 1056.29 48.8802C1057.42 47.3537 1059.15 45.064 1061.47 42.0111H1054.5C1053.63 42.0111 1053.2 41.7788 1053.2 41.3142C1053.13 40.8496 1053.4 40.4182 1054 40.02C1054.6 39.6218 1055.29 39.4227 1056.09 39.4227H1063.47C1071.64 28.8702 1076.83 22.7311 1079.02 21.0055C1079.89 20.2755 1080.88 20.1427 1082.01 20.6073C1082.34 20.7401 1082.41 20.9392 1082.21 21.2046Z" fill="white" fill-opacity="0.3"/>
<path d="M1164.85 21.2046C1162.66 24.1248 1158.37 30.1975 1151.99 39.4227H1159.27C1160.07 39.4227 1160.53 39.6218 1160.66 40.02C1160.73 40.4182 1160.46 40.8496 1159.87 41.3142C1159.27 41.7788 1158.57 42.0111 1157.77 42.0111H1150.2C1149.07 43.803 1147.24 46.5573 1144.71 50.2739C1136.14 63.083 1131.49 71.744 1130.75 76.257C1130.36 78.2481 1130.95 79.2436 1132.55 79.2436C1133.08 79.2436 1133.65 79.1109 1134.24 78.8454C1137.5 77.5844 1141.56 74.9629 1146.41 70.9808C1152.46 66.1359 1156.51 62.4193 1158.57 59.8309C1159.23 58.9681 1159.93 58.9349 1160.66 59.7314C1161 60.1959 1160.83 60.8264 1160.17 61.6229C1157.31 65.074 1152.82 69.0893 1146.71 73.6687C1137.93 80.1728 1131.85 83.1925 1128.46 82.7279C1124.81 82.2634 1122.98 80.3055 1122.98 76.8544C1122.98 76.1243 1123.08 75.3279 1123.28 74.4651C1124.08 71.0803 1125.77 67.3637 1128.36 63.3152C1130.02 60.7933 1133.55 55.9816 1138.93 48.8802C1140.06 47.3537 1141.79 45.064 1144.11 42.0111H1137.14C1136.27 42.0111 1135.84 41.7788 1135.84 41.3142C1135.77 40.8496 1136.04 40.4182 1136.64 40.02C1137.23 39.6218 1137.93 39.4227 1138.73 39.4227H1146.11C1154.28 28.8702 1159.47 22.7311 1161.66 21.0055C1162.52 20.2755 1163.52 20.1427 1164.65 20.6073C1164.98 20.7401 1165.05 20.9392 1164.85 21.2046Z" fill="white" fill-opacity="0.3"/>
<path d="M1193.83 26.5805C1194.5 26.5805 1194.83 27.0118 1194.83 27.8746C1194.83 29.0029 1194.33 30.4298 1193.33 32.1554C1191.27 35.872 1189.31 37.7303 1187.45 37.7303C1186.79 37.7303 1186.46 37.2657 1186.46 36.3366C1186.46 35.2083 1186.95 33.8146 1187.95 32.1554C1190.08 28.4388 1192.04 26.5805 1193.83 26.5805ZM1196.33 61.6229C1193.47 65.074 1188.98 69.0893 1182.87 73.6687C1174.09 80.1728 1168.01 83.1925 1164.62 82.7279C1161.03 82.2634 1159.24 80.2059 1159.24 76.5557C1159.24 75.8257 1159.3 75.1288 1159.44 74.4651C1160.1 71.4785 1163.23 66.4014 1168.81 59.2336C1170.8 56.7116 1173.43 53.6255 1176.68 49.9752C1179.81 46.5905 1181.77 44.5994 1182.57 44.0021C1182.83 43.803 1183.26 43.6703 1183.86 43.6039C1184.53 43.4712 1185.06 43.4712 1185.46 43.6039C1185.86 43.6703 1185.96 43.8694 1185.76 44.2012C1183.56 47.3205 1179.84 52.7959 1174.59 60.6273C1169.87 67.9278 1167.31 73.1377 1166.91 76.257C1166.58 78.2481 1167.15 79.2436 1168.61 79.2436C1171.14 79.2436 1175.79 76.4893 1182.57 70.9808C1188.62 66.1359 1192.67 62.4193 1194.73 59.8309C1195 59.4991 1195.36 59.3332 1195.83 59.3332C1196.62 59.3332 1197.02 59.665 1197.02 60.3287C1197.02 60.7269 1196.79 61.1583 1196.33 61.6229Z" fill="white" fill-opacity="0.3"/>
<path d="M1273.46 61.5233C1270.8 64.7753 1266.78 68.4588 1261.4 72.5736C1252.62 79.2768 1246.54 82.6284 1243.15 82.6284C1241.22 82.6284 1239.53 82.0974 1238.07 81.0355C1236.61 79.9737 1235.81 78.4804 1235.68 76.5557C1235.34 72.5736 1238.1 68.1269 1243.95 63.2157C1253.32 55.4506 1258.01 50.1743 1258.01 47.3869C1258.01 46.0595 1257.14 45.3958 1255.42 45.3958C1253.42 45.3958 1250.4 46.7232 1246.34 49.3779C1242.95 51.6344 1238.07 56.3134 1231.69 63.4148C1229.76 65.5386 1226.74 69.2552 1222.61 74.5647C1218.96 79.2768 1216.87 81.8652 1216.33 82.3297C1215.87 82.7279 1214.84 83.093 1213.24 83.4248C1211.65 83.823 1210.35 83.9889 1209.36 83.9226C1208.76 83.8562 1208.42 83.6571 1208.36 83.3253C1208.23 82.927 1213.58 76.0579 1224.41 62.7179C1226.47 60.1959 1228.56 57.6408 1230.69 55.0524C1233.08 51.8667 1234.28 49.4775 1234.28 47.8846C1234.28 46.3582 1233.35 45.5949 1231.49 45.5949C1228.63 45.5949 1224.31 47.8846 1218.53 52.4641C1213.21 56.6452 1209.12 60.6937 1206.26 64.6094C1202.01 70.6489 1197.49 76.7216 1192.71 82.8275C1192.11 82.9602 1191.34 82.8607 1190.41 82.5288C1189.42 82.197 1188.95 81.832 1189.02 81.4338C1189.15 80.3719 1193.84 73.6355 1203.07 61.2247C1211.18 50.2075 1215.64 44.3671 1216.43 43.7034C1216.77 43.438 1217.6 43.3052 1218.93 43.3052C1220.26 43.2389 1220.95 43.3716 1221.02 43.7034C1220.42 44.5662 1218.73 46.9887 1215.94 50.9708C1223.18 45.6613 1228.8 43.0066 1232.78 43.0066C1233.52 43.0066 1234.28 43.0729 1235.08 43.2057C1237.34 43.6039 1238.47 45.064 1238.47 47.586C1238.47 49.3779 1237.9 51.2362 1236.77 53.1609C1245.41 46.4577 1251.79 43.1061 1255.91 43.1061C1259.7 43.1061 1261.6 44.7322 1261.6 47.9842C1261.6 51.1035 1260 54.4883 1256.81 58.1385C1248.64 67.4301 1244.28 73.8014 1243.75 77.2526C1243.68 77.8499 1243.85 78.3476 1244.25 78.7458C1244.65 79.0777 1245.31 79.1772 1246.24 79.0445C1248.77 78.7127 1252.92 76.2902 1258.71 71.7772C1263.49 67.9942 1267.74 64.1449 1271.47 60.2291C1272 59.5654 1272.56 59.2336 1273.16 59.2336C1273.63 59.2336 1273.93 59.4659 1274.06 59.9305C1274.19 60.4614 1273.99 60.9924 1273.46 61.5233Z" fill="white" fill-opacity="0.3"/>
<path d="M1324.39 59.4327C1325.05 59.9636 1324.89 60.8264 1323.89 62.0211C1320.7 65.8041 1315.62 70.1512 1308.64 75.0624C1300.26 80.9692 1292.72 83.9226 1286.01 83.9226C1283.48 83.9226 1281.35 83.3916 1279.62 82.3297C1276.9 80.6041 1275.54 77.9494 1275.54 74.3655C1275.54 68.4588 1278.69 62.2534 1285.01 55.7493C1288.86 51.8336 1293.15 48.6147 1297.87 46.0927C1302.59 43.5707 1306.54 42.3097 1309.73 42.3097C1312.72 42.3097 1314.22 43.2057 1314.22 44.9976C1314.22 46.7896 1312.69 49.3779 1309.63 52.7627C1306.91 55.6829 1304.05 58.2049 1301.06 60.3287C1295.94 63.9789 1290.52 66.4014 1284.81 67.596C1284.14 69.6534 1283.81 71.4785 1283.81 73.0714C1283.81 75.5934 1284.64 77.4517 1286.3 78.6463C1287.77 79.6418 1289.49 80.1396 1291.49 80.1396C1295.88 80.1396 1301.09 77.9826 1307.14 73.6687C1312.99 69.4875 1317.91 65.1072 1321.9 60.5278C1323.03 59.3332 1323.86 58.9681 1324.39 59.4327ZM1310.13 44.4999C1308.34 44.4999 1305.75 45.4954 1302.36 47.4864C1298.77 49.6102 1295.44 52.2318 1292.39 55.3511C1289.79 58.0058 1287.63 61.2247 1285.91 65.0076C1290.43 63.813 1294.98 61.6229 1299.56 58.4372C1302.49 56.3798 1305.25 54.0237 1307.84 51.369C1310.5 48.7142 1311.83 46.7896 1311.83 45.5949C1311.83 44.8649 1311.26 44.4999 1310.13 44.4999Z" fill="white" fill-opacity="0.3"/>
<path d="M1428.71 61.6229C1425.86 65.074 1421.37 69.0893 1415.25 73.6687C1406.48 80.1728 1400.4 83.1925 1397.01 82.7279C1393.42 82.2634 1391.63 80.2059 1391.63 76.5557C1391.63 75.6929 1391.76 74.797 1392.02 73.8678C1386.71 79.9737 1382.09 82.927 1378.17 82.7279C1374.05 82.5288 1371.99 80.0069 1371.99 75.162C1371.99 70.6489 1374.11 65.7045 1378.37 60.3287C1382.62 54.9529 1387.67 50.5062 1393.52 46.9887C1398.9 43.8694 1403.46 42.3097 1407.18 42.3097C1408.77 42.3097 1410.04 42.6747 1410.97 43.4048C1411.9 44.1348 1412.26 45.2631 1412.06 46.7896C1413.59 45.2631 1414.52 44.3671 1414.86 44.1017C1415.19 43.8362 1415.65 43.6703 1416.25 43.6039C1416.92 43.4712 1417.45 43.4712 1417.85 43.6039C1418.24 43.6703 1418.34 43.8694 1418.15 44.2012C1415.95 47.3205 1412.23 52.7959 1406.98 60.6273C1402.26 67.9278 1399.7 73.1377 1399.3 76.257C1398.97 78.2481 1399.54 79.2436 1401 79.2436C1403.52 79.2436 1408.18 76.4893 1414.96 70.9808C1421 66.1359 1425.06 62.4193 1427.12 59.8309C1427.38 59.4991 1427.75 59.3332 1428.21 59.3332C1429.01 59.3332 1429.41 59.665 1429.41 60.3287C1429.41 60.7269 1429.18 61.1583 1428.71 61.6229ZM1408.57 50.9708C1409.37 49.9752 1409.77 48.8138 1409.77 47.4864C1409.77 45.4954 1408.81 44.4999 1406.88 44.4999C1404.82 44.4999 1402.19 45.5286 1399 47.586C1395.55 49.7761 1392.22 52.6963 1389.03 56.3466C1381.86 64.4435 1378.27 71.1467 1378.27 76.4561C1378.27 78.7127 1379.03 79.8409 1380.56 79.8409C1382.29 79.8409 1385.01 78.049 1388.73 74.4651C1391.86 71.4785 1394.68 68.2929 1397.21 64.9081C1400.4 60.6605 1404.19 56.0147 1408.57 50.9708Z" fill="white" fill-opacity="0.3"/>
<path d="M1481.99 61.5233C1479.33 64.7753 1475.31 68.4588 1469.93 72.5736C1461.15 79.2768 1455.07 82.6284 1451.68 82.6284C1449.76 82.6284 1448.06 82.0974 1446.6 81.0355C1445.14 79.9737 1444.34 78.4804 1444.21 76.5557C1443.87 72.5736 1446.63 68.1269 1452.48 63.2157C1461.85 55.4506 1466.54 50.1743 1466.54 47.3869C1466.54 46.0595 1465.67 45.3958 1463.95 45.3958C1461.95 45.3958 1458.93 46.7232 1454.87 49.3779C1448.36 53.7582 1443.44 58.1717 1440.12 62.6184C1435.4 69.3216 1430.41 76.0579 1425.16 82.8275C1424.57 82.9602 1423.8 82.8607 1422.87 82.5288C1421.87 82.197 1421.41 81.832 1421.48 81.4338C1421.61 80.3719 1426.29 73.6355 1435.53 61.2247C1443.64 50.2075 1448.09 44.3671 1448.89 43.7034C1449.22 43.438 1450.06 43.3052 1451.38 43.3052C1452.71 43.2389 1453.41 43.3716 1453.48 43.7034C1453.54 44.1017 1452.15 46.2586 1449.29 50.1743C1455.27 45.4622 1460.32 43.1061 1464.44 43.1061C1468.23 43.1061 1470.13 44.7322 1470.13 47.9842C1470.13 51.1035 1468.53 54.4883 1465.34 58.1385C1457.17 67.4301 1452.81 73.8014 1452.28 77.2526C1452.22 77.8499 1452.38 78.3476 1452.78 78.7458C1453.18 79.0777 1453.84 79.1772 1454.77 79.0445C1457.3 78.7127 1461.45 76.2902 1467.24 71.7772C1472.02 67.9942 1476.28 64.1449 1480 60.2291C1480.53 59.5654 1481.09 59.2336 1481.69 59.2336C1482.16 59.2336 1482.46 59.4659 1482.59 59.9305C1482.72 60.4614 1482.52 60.9924 1481.99 61.5233Z" fill="white" fill-opacity="0.3"/>
<path d="M1558.02 4.5794C1558.02 9.62339 1553.57 17.9526 1544.66 29.567C1539.21 36.7348 1530.04 47.1546 1517.14 60.8264C1512.82 68.5915 1510.66 73.9342 1510.66 76.8544C1510.66 78.4472 1511.23 79.2436 1512.36 79.2436C1514.95 79.2436 1519.57 76.5225 1526.22 71.0803C1531.73 66.5673 1535.82 62.8507 1538.48 59.9305C1538.81 59.5986 1539.18 59.4327 1539.58 59.4327C1540.24 59.4327 1540.57 59.7977 1540.57 60.5278C1540.57 60.926 1540.41 61.3242 1540.07 61.7224C1536.68 65.3727 1532.3 69.2552 1526.91 73.37C1518.74 79.6086 1512.76 82.7279 1508.97 82.7279C1507.37 82.7279 1506.08 82.2965 1505.08 81.4338C1503.29 79.8409 1502.65 77.6508 1503.19 74.8633C1497.2 80.1728 1492.72 82.8275 1489.73 82.8275C1488.33 82.8275 1487 82.3297 1485.74 81.3342C1484.08 80.0732 1483.25 78.0158 1483.25 75.162C1483.25 70.3835 1485.97 64.7753 1491.42 58.3376C1495.88 53.0945 1500.93 48.9797 1506.58 45.9931C1511.36 43.5375 1515.45 42.3097 1518.84 42.3097C1520.1 42.3097 1521.03 42.5088 1521.63 42.907L1534.79 22.0011C1543.56 7.931 1550.08 0.895971 1554.33 0.895971C1556.79 0.895971 1558.02 2.12378 1558.02 4.5794ZM1554.03 4.3803C1552.04 4.3803 1547.65 9.95523 1540.87 21.1051C1536.42 28.7374 1531.93 36.3698 1527.41 44.0021L1522.93 51.1699C1531.5 41.812 1537.98 34.3124 1542.37 28.6711C1545.56 24.4899 1548.42 20.2423 1550.94 15.9284C1553.73 11.1499 1555.13 7.79826 1555.13 5.87359C1555.13 4.87806 1554.76 4.3803 1554.03 4.3803ZM1520.23 45.1967C1519.57 44.7322 1518.84 44.4999 1518.04 44.4999C1515.58 44.4999 1512.26 46.0927 1508.07 49.2784C1503.95 52.3977 1500.26 56.0479 1497.01 60.2291C1492.02 66.6668 1489.53 72.0427 1489.53 76.3566C1489.53 78.7458 1490.33 79.9405 1491.92 79.9405C1493.98 79.9405 1498.37 76.4562 1505.08 69.4875C1506.74 66.8328 1509 63.1825 1511.86 58.5367C1513.19 56.3466 1515.98 51.8999 1520.23 45.1967Z" fill="white" fill-opacity="0.3"/>
<path d="M1642.93 61.2247C1637.61 67.596 1632.79 71.3458 1628.47 72.4741C1626.61 73.005 1624.88 73.2705 1623.28 73.2705C1620.96 73.2705 1618.96 72.7395 1617.3 71.6776C1613.51 75.3943 1609.49 78.414 1605.24 80.7369C1601.05 82.9934 1597.33 84.1217 1594.07 84.1217C1589.16 84.1217 1586.7 81.7324 1586.7 76.9539C1586.7 73.0382 1588.46 68.492 1591.98 63.3152C1595.9 57.6076 1600.82 52.7295 1606.74 48.6811C1612.65 44.5662 1617.83 42.5088 1622.29 42.5088C1627.21 42.5088 1629.67 44.8981 1629.67 49.6766C1629.67 53.5923 1627.9 58.1385 1624.38 63.3152C1622.92 65.439 1621.29 67.4965 1619.5 69.4875C1620.96 70.3503 1622.39 70.7817 1623.78 70.7817C1625.05 70.7817 1626.51 70.5162 1628.17 69.9853C1632.02 68.7906 1636.25 65.4722 1640.83 60.03C1641.3 59.5654 1641.76 59.3332 1642.23 59.3332C1642.96 59.3332 1643.32 59.665 1643.32 60.3287C1643.32 60.6605 1643.19 60.9592 1642.93 61.2247ZM1622.69 60.3287C1625.15 56.1475 1626.38 52.63 1626.38 49.7761C1626.38 46.7232 1625.01 45.1967 1622.29 45.1967C1619.3 45.1967 1615.61 46.8891 1611.22 50.2739C1606.83 53.6587 1603.01 57.7403 1599.76 62.5188C1596.3 67.6292 1594.57 71.9099 1594.57 75.3611C1594.57 78.414 1595.97 79.9405 1598.76 79.9405C1603.21 79.9405 1608.6 76.6884 1614.91 70.1844C1613.12 68.7243 1612.22 67.0982 1612.22 65.3063C1612.22 63.7135 1612.88 62.3861 1614.21 61.3242C1615.81 60.1296 1617.6 59.5323 1619.6 59.5323C1620.93 59.5323 1621.96 59.7977 1622.69 60.3287Z" fill="white" fill-opacity="0.3"/>
<path d="M1700.44 4.28075C1700.44 10.9176 1693.46 23.0629 1679.5 40.7169C1668.8 54.1233 1658.93 63.4812 1649.89 68.7906L1647.9 72.5736C1648.1 76.3566 1649.39 78.6131 1651.79 79.3432C1652.85 79.675 1653.88 79.8409 1654.88 79.8409C1658.53 79.8409 1663.55 77.3521 1669.93 72.3745C1676.58 67.1314 1681.1 63.083 1683.49 60.2291C1683.89 59.6318 1684.39 59.3332 1684.98 59.3332C1685.45 59.3332 1685.75 59.5323 1685.88 59.9305C1686.08 60.3287 1685.95 60.8264 1685.48 61.4238C1684.49 62.7511 1682.26 64.9081 1678.8 67.8946C1675.41 70.8812 1672.72 73.1046 1670.73 74.5647C1666.47 77.4849 1663.92 79.2104 1663.05 79.7414C1659.13 81.9979 1655.77 83.0598 1652.98 82.927C1649.26 82.7279 1646.4 81.5333 1644.41 79.3432C1639.95 87.5728 1633.44 99.7514 1624.87 115.879C1622.27 116.874 1618.92 117.903 1614.8 118.965C1613.93 118.965 1613.5 118.733 1613.5 118.268C1613.43 117.804 1613.73 117.372 1614.4 116.974C1615.73 116.045 1617.09 114.551 1618.49 112.494C1619.42 111.1 1630.62 92.6168 1652.08 57.0435C1674.95 19.0145 1689.84 0 1696.75 0C1699.21 0 1700.44 1.42692 1700.44 4.28075ZM1694.85 4.87806C1691.4 4.87806 1684.12 12.8754 1673.02 28.8702C1667.64 36.6352 1661.69 46.6236 1655.17 58.8354L1652.98 62.917C1661.29 57.143 1669.43 49.212 1677.41 39.124C1681.59 33.8146 1685.62 28.0074 1689.47 21.7024C1694.12 14.2692 1696.45 9.25836 1696.45 6.67001C1696.45 5.47538 1695.92 4.87806 1694.85 4.87806Z" fill="white" fill-opacity="0.3"/>
<path d="M1788.3 61.2247C1782.99 67.596 1778.17 71.3458 1773.85 72.4741C1771.99 73.005 1770.26 73.2705 1768.66 73.2705C1766.34 73.2705 1764.34 72.7395 1762.68 71.6776C1758.89 75.3943 1754.87 78.414 1750.62 80.7369C1746.43 82.9934 1742.71 84.1217 1739.45 84.1217C1734.53 84.1217 1732.07 81.7324 1732.07 76.9539C1732.07 73.0382 1733.84 68.492 1737.36 63.3152C1741.28 57.6076 1746.2 52.7295 1752.11 48.6811C1758.03 44.5662 1763.21 42.5088 1767.67 42.5088C1772.59 42.5088 1775.04 44.8981 1775.04 49.6766C1775.04 53.5923 1773.28 58.1385 1769.76 63.3152C1768.3 65.439 1766.67 67.4965 1764.88 69.4875C1766.34 70.3503 1767.77 70.7817 1769.16 70.7817C1770.43 70.7817 1771.89 70.5162 1773.55 69.9853C1777.4 68.7906 1781.62 65.4722 1786.21 60.03C1786.68 59.5654 1787.14 59.3332 1787.61 59.3332C1788.34 59.3332 1788.7 59.665 1788.7 60.3287C1788.7 60.6605 1788.57 60.9592 1788.3 61.2247ZM1768.07 60.3287C1770.52 56.1475 1771.75 52.63 1771.75 49.7761C1771.75 46.7232 1770.39 45.1967 1767.67 45.1967C1764.68 45.1967 1760.99 46.8891 1756.6 50.2739C1752.21 53.6587 1748.39 57.7403 1745.14 62.5188C1741.68 67.6292 1739.95 71.9099 1739.95 75.3611C1739.95 78.414 1741.35 79.9405 1744.14 79.9405C1748.59 79.9405 1753.98 76.6884 1760.29 70.1844C1758.49 68.7243 1757.6 67.0982 1757.6 65.3063C1757.6 63.7135 1758.26 62.3861 1759.59 61.3242C1761.19 60.1296 1762.98 59.5323 1764.97 59.5323C1766.3 59.5323 1767.33 59.7977 1768.07 60.3287Z" fill="white" fill-opacity="0.3"/>
<path d="M1841.33 61.5233C1838.67 64.7753 1834.65 68.4588 1829.27 72.5736C1820.49 79.2768 1814.41 82.6284 1811.02 82.6284C1809.09 82.6284 1807.4 82.0974 1805.94 81.0355C1804.48 79.9737 1803.68 78.4804 1803.54 76.5557C1803.21 72.5736 1805.97 68.1269 1811.82 63.2157C1821.19 55.4506 1825.88 50.1743 1825.88 47.3869C1825.88 46.0595 1825.01 45.3958 1823.28 45.3958C1821.29 45.3958 1818.27 46.7232 1814.21 49.3779C1807.7 53.7582 1802.78 58.1717 1799.46 62.6184C1794.74 69.3216 1789.75 76.0579 1784.5 82.8275C1783.9 82.9602 1783.14 82.8607 1782.21 82.5288C1781.21 82.197 1780.75 81.832 1780.81 81.4338C1780.95 80.3719 1785.63 73.6355 1794.87 61.2247C1802.98 50.2075 1807.43 44.3671 1808.23 43.7034C1808.56 43.438 1809.39 43.3052 1810.72 43.3052C1812.05 43.2389 1812.75 43.3716 1812.82 43.7034C1812.88 44.1017 1811.49 46.2586 1808.63 50.1743C1814.61 45.4622 1819.66 43.1061 1823.78 43.1061C1827.57 43.1061 1829.47 44.7322 1829.47 47.9842C1829.47 51.1035 1827.87 54.4883 1824.68 58.1385C1816.51 67.4301 1812.15 73.8014 1811.62 77.2526C1811.55 77.8499 1811.72 78.3476 1812.12 78.7458C1812.52 79.0777 1813.18 79.1772 1814.11 79.0445C1816.64 78.7127 1820.79 76.2902 1826.57 71.7772C1831.36 67.9942 1835.61 64.1449 1839.34 60.2291C1839.87 59.5654 1840.43 59.2336 1841.03 59.2336C1841.5 59.2336 1841.8 59.4659 1841.93 59.9305C1842.06 60.4614 1841.86 60.9924 1841.33 61.5233Z" fill="white" fill-opacity="0.3"/>
<path d="M1892.23 59.4327C1892.9 59.9636 1892.73 60.8264 1891.74 62.0211C1888.55 65.8041 1883.46 70.1512 1876.48 75.0624C1868.11 80.9692 1860.56 83.9226 1853.85 83.9226C1851.33 83.9226 1849.2 83.3916 1847.47 82.3297C1844.75 80.6041 1843.38 77.9494 1843.38 74.3655C1843.38 68.4588 1846.54 62.2534 1852.85 55.7493C1856.71 51.8336 1861 48.6147 1865.72 46.0927C1870.43 43.5707 1874.39 42.3097 1877.58 42.3097C1880.57 42.3097 1882.07 43.2057 1882.07 44.9976C1882.07 46.7896 1880.54 49.3779 1877.48 52.7627C1874.75 55.6829 1871.9 58.2049 1868.91 60.3287C1863.79 63.9789 1858.37 66.4014 1852.66 67.596C1851.99 69.6534 1851.66 71.4785 1851.66 73.0714C1851.66 75.5934 1852.49 77.4517 1854.15 78.6463C1855.61 79.6418 1857.34 80.1396 1859.33 80.1396C1863.72 80.1396 1868.94 77.9826 1874.99 73.6687C1880.84 69.4875 1885.75 65.1072 1889.74 60.5278C1890.87 59.3332 1891.7 58.9681 1892.23 59.4327ZM1877.98 44.4999C1876.18 44.4999 1873.59 45.4954 1870.2 47.4864C1866.61 49.6102 1863.29 52.2318 1860.23 55.3511C1857.64 58.0058 1855.48 61.2247 1853.75 65.0076C1858.27 63.813 1862.82 61.6229 1867.41 58.4372C1870.33 56.3798 1873.09 54.0237 1875.69 51.369C1878.34 48.7142 1879.67 46.7896 1879.67 45.5949C1879.67 44.8649 1879.11 44.4999 1877.98 44.4999Z" fill="white" fill-opacity="0.3"/>
<path d="M2014.5 4.5794C2014.5 9.62339 2010.05 17.9526 2001.15 29.567C1995.7 36.7348 1986.52 47.1546 1973.63 60.8264C1969.31 68.5915 1967.15 73.9342 1967.15 76.8544C1967.15 78.4472 1967.71 79.2436 1968.84 79.2436C1971.44 79.2436 1976.05 76.5225 1982.7 71.0803C1988.22 66.5673 1992.31 62.8507 1994.96 59.9305C1995.3 59.5986 1995.66 59.4327 1996.06 59.4327C1996.73 59.4327 1997.06 59.7977 1997.06 60.5278C1997.06 60.926 1996.89 61.3242 1996.56 61.7224C1993.17 65.3727 1988.78 69.2552 1983.4 73.37C1975.22 79.6086 1969.24 82.7279 1965.45 82.7279C1963.86 82.7279 1962.56 82.2965 1961.57 81.4338C1959.77 79.8409 1959.14 77.6508 1959.67 74.8633C1953.69 80.1728 1949.2 82.8275 1946.21 82.8275C1944.82 82.8275 1943.49 82.3297 1942.22 81.3342C1940.56 80.0732 1939.73 78.0158 1939.73 75.162C1939.73 70.3835 1942.46 64.7753 1947.91 58.3376C1952.36 53.0945 1957.41 48.9797 1963.06 45.9931C1967.85 43.5375 1971.93 42.3097 1975.32 42.3097C1976.59 42.3097 1977.52 42.5088 1978.12 42.907L1991.28 22.0011C2000.05 7.931 2006.56 0.895971 2010.82 0.895971C2013.28 0.895971 2014.5 2.12378 2014.5 4.5794ZM2010.52 4.3803C2008.52 4.3803 2004.14 9.95523 1997.36 21.1051C1992.9 28.7374 1988.42 36.3698 1983.9 44.0021L1979.41 51.1699C1987.99 41.812 1994.47 34.3124 1998.85 28.6711C2002.04 24.4899 2004.9 20.2423 2007.43 15.9284C2010.22 11.1499 2011.61 7.79826 2011.61 5.87359C2011.61 4.87806 2011.25 4.3803 2010.52 4.3803ZM1976.72 45.1967C1976.05 44.7322 1975.32 44.4999 1974.53 44.4999C1972.07 44.4999 1968.74 46.0927 1964.56 49.2784C1960.44 52.3977 1956.75 56.0479 1953.49 60.2291C1948.51 66.6668 1946.01 72.0427 1946.01 76.3566C1946.01 78.7458 1946.81 79.9405 1948.41 79.9405C1950.47 79.9405 1954.85 76.4562 1961.57 69.4875C1963.23 66.8328 1965.49 63.1825 1968.35 58.5367C1969.67 56.3466 1972.47 51.8999 1976.72 45.1967Z" fill="white" fill-opacity="0.3"/>
<path d="M2054.62 61.6229C2051.77 65.074 2047.28 69.0893 2041.17 73.6687C2032.39 80.1728 2026.31 83.1925 2022.92 82.7279C2019.33 82.2634 2017.54 80.2059 2017.54 76.5557C2017.54 75.6929 2017.67 74.797 2017.94 73.8678C2012.62 79.9737 2008 82.927 2004.08 82.7279C1999.96 82.5288 1997.9 80.0069 1997.9 75.162C1997.9 70.6489 2000.02 65.7045 2004.28 60.3287C2008.53 54.9529 2013.58 50.5062 2019.43 46.9887C2024.82 43.8694 2029.37 42.3097 2033.09 42.3097C2034.69 42.3097 2035.95 42.6747 2036.88 43.4048C2037.81 44.1348 2038.18 45.2631 2037.98 46.7896C2039.5 45.2631 2040.43 44.3671 2040.77 44.1017C2041.1 43.8362 2041.56 43.6703 2042.16 43.6039C2042.83 43.4712 2043.36 43.4712 2043.76 43.6039C2044.16 43.6703 2044.26 43.8694 2044.06 44.2012C2041.86 47.3205 2038.14 52.7959 2032.89 60.6273C2028.17 67.9278 2025.61 73.1377 2025.21 76.257C2024.88 78.2481 2025.45 79.2436 2026.91 79.2436C2029.43 79.2436 2034.09 76.4893 2040.87 70.9808C2046.92 66.1359 2050.97 62.4193 2053.03 59.8309C2053.3 59.4991 2053.66 59.3332 2054.13 59.3332C2054.92 59.3332 2055.32 59.665 2055.32 60.3287C2055.32 60.7269 2055.09 61.1583 2054.62 61.6229ZM2034.49 50.9708C2035.28 49.9752 2035.68 48.8138 2035.68 47.4864C2035.68 45.4954 2034.72 44.4999 2032.79 44.4999C2030.73 44.4999 2028.11 45.5286 2024.92 47.586C2021.46 49.7761 2018.14 52.6963 2014.95 56.3466C2007.77 64.4435 2004.18 71.1467 2004.18 76.4561C2004.18 78.7127 2004.94 79.8409 2006.47 79.8409C2008.2 79.8409 2010.92 78.049 2014.65 74.4651C2017.77 71.4785 2020.6 68.2929 2023.12 64.9081C2026.31 60.6605 2030.1 56.0147 2034.49 50.9708Z" fill="white" fill-opacity="0.3"/>
<path d="M2110.69 60.926C2108.7 63.8462 2103.62 68.4256 2095.44 74.6642C2090.26 78.6463 2084.04 81.9315 2076.8 84.5199C2071.88 92.2186 2067.43 98.6563 2063.44 103.833C2059.45 109.01 2055.16 112.992 2050.58 115.779C2046.72 118.102 2043.33 119.264 2040.41 119.264C2037.42 119.264 2035.92 117.87 2035.92 115.082C2035.92 112.826 2036.89 110.105 2038.81 106.919C2040.67 103.8 2043.27 100.747 2046.59 97.7603C2052.84 92.3181 2061.34 87.6392 2072.11 83.7235C2073.18 81.4669 2074.94 77.8499 2077.4 72.8723C2075.8 74.4651 2074.57 75.6265 2073.71 76.3566C2071.51 78.2149 2069.09 79.7414 2066.43 80.936C2063.44 82.3961 2061.01 82.9934 2059.15 82.7279C2055.56 82.2634 2053.77 80.1728 2053.77 76.4561C2053.77 75.7925 2053.83 75.1288 2053.97 74.4651C2054.57 71.2131 2057.69 66.1359 2063.34 59.2336C2071.38 49.4111 2075.83 44.2676 2076.7 43.803C2077.23 43.4712 2077.86 43.3052 2078.59 43.3052C2079.46 43.2389 2079.89 43.4712 2079.89 44.0021C2079.89 44.5994 2078.66 46.69 2076.2 50.2739C2072.28 55.8488 2069.92 59.3 2069.12 60.6273C2064.4 67.9278 2061.84 73.1377 2061.44 76.257C2061.11 78.2481 2061.68 79.2436 2063.14 79.2436C2063.6 79.2436 2064.2 79.1109 2064.93 78.8454C2070.52 76.8543 2076.96 70.9144 2084.28 61.0255C2090.85 52.1322 2095.81 46.4577 2099.13 44.0021C2099.4 43.803 2099.83 43.6703 2100.43 43.6039C2101.09 43.4712 2101.62 43.4712 2102.02 43.6039C2102.42 43.6703 2102.52 43.8694 2102.32 44.2012C2101.39 45.5286 2093.61 57.8067 2078.99 81.0355C2085.77 78.1817 2090.92 75.3943 2094.44 72.6732C2100.69 67.8946 2105.48 63.5143 2108.8 59.5323C2109.2 59.134 2109.76 59.134 2110.5 59.5323C2111.09 59.8641 2111.16 60.3287 2110.69 60.926ZM2070.62 86.71C2062.18 89.9621 2055.3 93.8778 2049.98 98.4572C2047.39 100.78 2045.19 103.335 2043.4 106.123C2041.6 108.977 2040.71 111.333 2040.71 113.191C2040.71 115.116 2041.54 116.078 2043.2 116.078C2045.13 116.078 2047.69 114.95 2050.88 112.693C2054.4 110.105 2057.62 106.886 2060.55 103.037C2063.54 99.1872 2066.89 93.745 2070.62 86.71Z" fill="white" fill-opacity="0.3"/>
<path d="M503.111 136.42C503.111 141.796 495.468 153.045 480.181 170.168C469.746 181.849 460.873 189.979 453.562 194.558C451.169 199.868 449.973 203.983 449.973 206.903C449.973 210.42 451.435 212.179 454.359 212.179C457.483 212.179 462.468 209.491 469.314 204.115C473.634 200.731 477.589 197.114 481.178 193.264C481.843 192.468 482.507 192.07 483.172 192.07C483.77 192.07 484.069 192.368 484.069 192.965C484.069 194.89 479.018 199.635 468.915 207.201C460.806 213.374 454.326 216.46 449.474 216.46C448.411 216.46 447.447 216.294 446.583 215.962C443.924 214.967 442.595 212.776 442.595 209.392C442.595 201.361 449.64 187.556 463.731 167.978C480.214 144.948 492.211 133.433 499.722 133.433C501.981 133.433 503.111 134.429 503.111 136.42ZM497.927 137.714C495.202 137.117 490.217 140.866 482.973 148.963C476.858 155.866 471.441 163.067 466.722 170.566C462.867 176.672 459.145 183.276 455.556 190.377C463.066 184.47 470.809 177.103 478.785 168.277C492.344 153.211 499.123 143.588 499.123 139.406C499.123 138.477 498.725 137.913 497.927 137.714Z" fill="white" fill-opacity="0.3"/>
<path d="M534.424 192.169C535.089 192.7 534.923 193.563 533.926 194.757C530.735 198.54 525.651 202.888 518.672 207.799C510.297 213.706 502.754 216.659 496.041 216.659C493.515 216.659 491.388 216.128 489.66 215.066C486.935 213.341 485.572 210.686 485.572 207.102C485.572 201.195 488.729 194.99 495.044 188.486C498.899 184.57 503.186 181.351 507.905 178.829C512.624 176.307 516.578 175.046 519.769 175.046C522.759 175.046 524.255 175.942 524.255 177.734C524.255 179.526 522.726 182.114 519.669 185.499C516.944 188.419 514.086 190.941 511.095 193.065C505.977 196.715 500.56 199.138 494.844 200.332C494.18 202.39 493.847 204.215 493.847 205.808C493.847 208.33 494.678 210.188 496.34 211.383C497.802 212.378 499.53 212.876 501.524 212.876C505.911 212.876 511.128 210.719 517.176 206.405C523.025 202.224 527.944 197.844 531.932 193.264C533.062 192.07 533.892 191.704 534.424 192.169ZM520.167 177.236C518.373 177.236 515.781 178.232 512.391 180.223C508.802 182.347 505.479 184.968 502.421 188.087C499.829 190.742 497.669 193.961 495.941 197.744C500.461 196.549 505.013 194.359 509.599 191.174C512.524 189.116 515.282 186.76 517.874 184.105C520.533 181.451 521.862 179.526 521.862 178.331C521.862 177.601 521.297 177.236 520.167 177.236Z" fill="white" fill-opacity="0.3"/>
<path d="M575.021 153.941C572.828 156.861 568.541 162.934 562.16 172.159H569.438C570.236 172.159 570.701 172.358 570.834 172.756C570.9 173.155 570.634 173.586 570.036 174.051C569.438 174.515 568.74 174.747 567.943 174.747H560.366C559.236 176.539 557.408 179.294 554.882 183.01C546.308 195.819 541.656 204.48 540.925 208.993C540.526 210.984 541.124 211.98 542.719 211.98C543.251 211.98 543.816 211.847 544.414 211.582C547.671 210.321 551.725 207.699 556.577 203.717C562.625 198.872 566.68 195.156 568.74 192.567C569.405 191.704 570.103 191.671 570.834 192.468C571.166 192.932 571 193.563 570.335 194.359C567.477 197.81 562.991 201.826 556.876 206.405C548.103 212.909 542.021 215.929 538.632 215.464C534.976 215 533.148 213.042 533.148 209.591C533.148 208.861 533.248 208.064 533.447 207.201C534.245 203.817 535.94 200.1 538.532 196.052C540.194 193.53 543.716 188.718 549.1 181.617C550.23 180.09 551.958 177.8 554.284 174.747H547.305C546.441 174.747 546.009 174.515 546.009 174.051C545.943 173.586 546.209 173.155 546.807 172.756C547.405 172.358 548.103 172.159 548.9 172.159H556.278C564.453 161.607 569.637 155.467 571.831 153.742C572.695 153.012 573.692 152.879 574.822 153.344C575.154 153.476 575.22 153.676 575.021 153.941Z" fill="white" fill-opacity="0.3"/>
<path d="M608.987 140.601C608.788 143.654 607.093 146.475 603.903 149.063C600.713 151.585 597.489 152.846 594.232 152.846C593.767 152.846 593.568 152.614 593.634 152.149C593.634 151.751 593.867 151.585 594.332 151.651C595.927 151.85 598.087 151.154 600.812 149.561C603.604 147.902 605.066 146.408 605.199 145.081C605.199 144.815 604.701 144.583 603.704 144.384C601.377 143.919 600.281 142.592 600.414 140.402C600.48 139.207 600.978 138.179 601.909 137.316C602.839 136.453 603.836 136.022 604.9 136.022C606.229 135.955 607.259 136.353 607.991 137.216C608.722 138.013 609.054 139.141 608.987 140.601Z" fill="white" fill-opacity="0.3"/>
<path d="M650.969 194.459C648.842 196.583 646.549 198.74 644.089 200.93C641.63 203.12 638.972 205.277 636.114 207.401C627.141 214.236 619.664 216.991 613.682 215.663C608.697 214.602 606.205 211.416 606.205 206.106C606.205 204.049 606.736 202.091 607.8 200.233C609.129 198.043 610.691 197.08 612.485 197.346C613.217 196.682 614.047 195.886 614.978 194.957C615.975 194.027 617.105 192.932 618.368 191.671C620.627 189.68 623.352 186.959 626.543 183.508C626.942 182.844 627.374 181.583 627.839 179.725C628.304 177.867 629.002 176.274 629.933 174.947C631.129 173.155 632.425 172.259 633.821 172.259C635.283 172.259 636.014 173.088 636.014 174.747C636.014 176.34 635.482 177.867 634.419 179.327C633.422 180.787 631.96 182.38 630.032 184.105C629.833 184.769 630.099 186.893 630.83 190.477C631.295 192.534 631.627 194.392 631.827 196.052C632.026 197.644 632.126 199.005 632.126 200.133C632.126 203.783 631.129 206.936 629.135 209.591C630.464 208.794 631.794 207.898 633.123 206.903C634.452 205.907 635.848 204.845 637.31 203.717C642.361 199.602 646.349 195.952 649.274 192.766C649.673 192.302 650.071 192.07 650.47 192.07C651.201 192.07 651.567 192.435 651.567 193.165C651.567 193.629 651.367 194.061 650.969 194.459ZM627.041 189.78C627.041 189.183 626.942 188.32 626.742 187.191L619.963 193.662C618.899 194.724 617.038 196.483 614.38 198.939C614.579 199.47 614.679 199.934 614.679 200.332C614.679 201.66 614.214 202.688 613.283 203.418C613.15 203.418 612.386 203.75 610.99 204.414C610.259 204.879 609.694 205.509 609.295 206.305C609.162 206.836 609.096 207.301 609.096 207.699C609.096 210.553 610.525 212.212 613.383 212.677C614.712 212.942 616.274 212.445 618.069 211.184C619.93 209.923 621.658 207.998 623.253 205.41C625.779 201.096 627.041 195.886 627.041 189.78Z" fill="white" fill-opacity="0.3"/>
<path d="M748.423 192.169C749.087 192.7 748.921 193.563 747.924 194.757C744.734 198.54 739.649 202.888 732.67 207.799C724.296 213.706 716.752 216.659 710.039 216.659C707.514 216.659 705.387 216.128 703.659 215.066C700.934 213.341 699.571 210.686 699.571 207.102C699.571 201.195 702.728 194.99 709.042 188.486C712.897 184.57 717.184 181.351 721.903 178.829C726.622 176.307 730.577 175.046 733.767 175.046C736.758 175.046 738.253 175.942 738.253 177.734C738.253 179.526 736.725 182.114 733.667 185.499C730.942 188.419 728.084 190.941 725.093 193.065C719.976 196.715 714.559 199.138 708.843 200.332C708.178 202.39 707.846 204.215 707.846 205.808C707.846 208.33 708.677 210.188 710.338 211.383C711.801 212.378 713.529 212.876 715.523 212.876C719.909 212.876 725.127 210.719 731.175 206.405C737.024 202.224 741.942 197.844 745.93 193.264C747.06 192.07 747.891 191.704 748.423 192.169ZM734.166 177.236C732.371 177.236 729.779 178.232 726.39 180.223C722.8 182.347 719.477 184.968 716.42 188.087C713.828 190.742 711.668 193.961 709.94 197.744C714.459 196.549 719.012 194.359 723.598 191.174C726.522 189.116 729.281 186.76 731.873 184.105C734.531 181.451 735.861 179.526 735.861 178.331C735.861 177.601 735.296 177.236 734.166 177.236Z" fill="white" fill-opacity="0.3"/>
<path d="M801.382 194.26C798.724 197.512 794.702 201.195 789.319 205.31C780.545 212.013 774.464 215.365 771.074 215.365C769.147 215.365 767.452 214.834 765.99 213.772C764.527 212.71 763.73 211.217 763.597 209.292C763.265 205.31 766.023 200.863 771.872 195.952C781.243 188.187 785.929 182.911 785.929 180.123C785.929 178.796 785.065 178.132 783.337 178.132C781.343 178.132 778.319 179.46 774.265 182.114C767.751 186.495 762.833 190.908 759.509 195.355C754.79 202.058 749.805 208.794 744.555 215.564C743.957 215.697 743.192 215.597 742.262 215.265C741.265 214.933 740.799 214.568 740.866 214.17C740.999 213.108 745.685 206.372 754.923 193.961C763.032 182.944 767.485 177.103 768.283 176.44C768.615 176.174 769.446 176.042 770.775 176.042C772.104 175.975 772.802 176.108 772.869 176.44C772.935 176.838 771.539 178.995 768.681 182.911C774.663 178.199 779.715 175.842 783.835 175.842C787.624 175.842 789.518 177.469 789.518 180.721C789.518 183.84 787.923 187.225 784.733 190.875C776.558 200.166 772.204 206.538 771.672 209.989C771.606 210.586 771.772 211.084 772.171 211.482C772.57 211.814 773.234 211.914 774.165 211.781C776.691 211.449 780.845 209.027 786.627 204.514C791.412 200.731 795.666 196.881 799.388 192.965C799.92 192.302 800.485 191.97 801.083 191.97C801.548 191.97 801.847 192.202 801.98 192.667C802.113 193.198 801.914 193.729 801.382 194.26Z" fill="white" fill-opacity="0.3"/>
<path d="M833.544 159.317C834.208 159.317 834.541 159.748 834.541 160.611C834.541 161.739 834.042 163.166 833.045 164.892C830.985 168.608 829.024 170.467 827.163 170.467C826.499 170.467 826.166 170.002 826.166 169.073C826.166 167.945 826.665 166.551 827.662 164.892C829.789 161.175 831.749 159.317 833.544 159.317ZM834.74 193.662C832.746 196.583 827.662 201.162 819.487 207.401C814.302 211.383 808.088 214.668 800.843 217.256C795.925 224.955 791.472 231.393 787.484 236.569C783.496 241.746 779.209 245.728 774.623 248.516C770.768 250.839 767.378 252 764.454 252C761.463 252 759.967 250.606 759.967 247.819C759.967 245.562 760.931 242.841 762.859 239.656C764.72 236.536 767.312 233.483 770.635 230.497C776.883 225.055 785.39 220.376 796.157 216.46C799.68 209.292 802.372 204.182 804.233 201.129C808.62 193.828 812.84 187.789 816.894 183.01C819.686 179.692 821.78 177.601 823.175 176.738C823.441 176.606 823.873 176.473 824.471 176.34C825.136 176.274 825.668 176.274 826.067 176.34C826.465 176.407 826.565 176.606 826.366 176.938C825.435 178.265 817.659 190.543 803.037 213.772C809.816 210.918 814.967 208.131 818.49 205.41C824.737 200.631 829.523 196.251 832.846 192.269C833.245 191.87 833.81 191.87 834.541 192.269C835.139 192.6 835.206 193.065 834.74 193.662ZM794.662 219.446C786.221 222.698 779.342 226.614 774.025 231.194C771.432 233.516 769.239 236.072 767.445 238.859C765.65 241.713 764.753 244.069 764.753 245.927C764.753 247.852 765.584 248.814 767.245 248.814C769.173 248.814 771.732 247.686 774.922 245.43C778.445 242.841 781.701 239.622 784.692 235.773C787.617 231.924 790.94 226.481 794.662 219.446Z" fill="white" fill-opacity="0.3"/>
<path d="M890.717 193.961C885.4 200.332 880.581 204.082 876.261 205.21C874.4 205.741 872.672 206.007 871.077 206.007C868.751 206.007 866.757 205.476 865.095 204.414C861.306 208.131 857.285 211.15 853.032 213.473C848.844 215.73 845.122 216.858 841.866 216.858C836.947 216.858 834.488 214.469 834.488 209.69C834.488 205.775 836.249 201.228 839.772 196.052C843.693 190.344 848.612 185.466 854.527 181.417C860.442 177.303 865.627 175.245 870.08 175.245C874.998 175.245 877.457 177.634 877.457 182.413C877.457 186.329 875.696 190.875 872.173 196.052C870.711 198.175 869.083 200.233 867.288 202.224C868.751 203.087 870.18 203.518 871.575 203.518C872.838 203.518 874.3 203.253 875.962 202.722C879.817 201.527 884.037 198.209 888.624 192.766C889.089 192.302 889.554 192.07 890.019 192.07C890.75 192.07 891.116 192.401 891.116 193.065C891.116 193.397 890.983 193.696 890.717 193.961ZM870.479 193.065C872.938 188.884 874.167 185.366 874.167 182.512C874.167 179.46 872.805 177.933 870.08 177.933C867.089 177.933 863.4 179.625 859.013 183.01C854.627 186.395 850.805 190.477 847.548 195.255C844.092 200.366 842.364 204.646 842.364 208.097C842.364 211.15 843.76 212.677 846.551 212.677C851.004 212.677 856.388 209.425 862.702 202.921C860.908 201.461 860.01 199.835 860.01 198.043C860.01 196.45 860.675 195.122 862.004 194.061C863.599 192.866 865.394 192.269 867.388 192.269C868.717 192.269 869.748 192.534 870.479 193.065Z" fill="white" fill-opacity="0.3"/>
<path d="M946.534 193.662C944.54 196.583 939.456 201.162 931.281 207.401C926.096 211.383 919.882 214.668 912.637 217.256C907.719 224.955 903.266 231.393 899.278 236.569C895.29 241.746 891.003 245.728 886.417 248.516C882.562 250.839 879.172 252 876.248 252C873.257 252 871.761 250.606 871.761 247.819C871.761 245.562 872.725 242.841 874.653 239.656C876.514 236.536 879.106 233.483 882.429 230.497C888.677 225.055 897.184 220.376 907.952 216.46C909.015 214.203 910.776 210.586 913.235 205.609C911.64 207.201 910.411 208.363 909.547 209.093C907.353 210.951 904.927 212.478 902.269 213.672C899.278 215.132 896.852 215.73 894.991 215.464C891.402 215 889.607 212.909 889.607 209.193C889.607 208.529 889.674 207.865 889.807 207.201C890.405 203.949 893.529 198.872 899.178 191.97C907.22 182.147 911.674 177.004 912.538 176.539C913.069 176.208 913.701 176.042 914.432 176.042C915.296 175.975 915.728 176.208 915.728 176.738C915.728 177.336 914.498 179.426 912.039 183.01C908.118 188.585 905.758 192.036 904.961 193.364C900.242 200.664 897.683 205.874 897.284 208.993C896.952 210.984 897.517 211.98 898.979 211.98C899.444 211.98 900.042 211.847 900.773 211.582C906.356 209.591 912.804 203.651 920.115 193.762C926.695 184.869 931.646 179.194 934.969 176.738C935.235 176.539 935.667 176.407 936.266 176.34C936.93 176.208 937.462 176.208 937.861 176.34C938.26 176.407 938.359 176.606 938.16 176.938C937.229 178.265 929.453 190.543 914.831 213.772C921.61 210.918 926.761 208.131 930.284 205.41C936.531 200.631 941.317 196.251 944.64 192.269C945.039 191.87 945.604 191.87 946.335 192.269C946.933 192.6 947 193.065 946.534 193.662ZM906.456 219.446C898.015 222.698 891.136 226.614 885.819 231.194C883.227 233.516 881.033 236.072 879.239 238.859C877.444 241.713 876.547 244.069 876.547 245.927C876.547 247.852 877.378 248.814 879.039 248.814C880.967 248.814 883.526 247.686 886.716 245.43C890.239 242.841 893.462 239.622 896.387 235.773C899.378 231.924 902.734 226.481 906.456 219.446Z" fill="white" fill-opacity="0.3"/>
<path d="M1026.22 159.317C1026.88 159.317 1027.21 159.748 1027.21 160.611C1027.21 161.739 1026.72 163.166 1025.72 164.892C1023.66 168.608 1021.7 170.467 1019.84 170.467C1019.17 170.467 1018.84 170.002 1018.84 169.073C1018.84 167.945 1019.34 166.551 1020.33 164.892C1022.46 161.175 1024.42 159.317 1026.22 159.317ZM1028.71 194.359C1025.85 197.81 1021.36 201.826 1015.25 206.405C1006.48 212.909 1000.4 215.929 997.005 215.464C993.416 215 991.622 212.942 991.622 209.292C991.622 208.562 991.688 207.865 991.821 207.201C992.486 204.215 995.61 199.138 1001.19 191.97C1003.19 189.448 1005.81 186.362 1009.07 182.712C1012.19 179.327 1014.15 177.336 1014.95 176.738C1015.22 176.539 1015.65 176.407 1016.25 176.34C1016.91 176.208 1017.44 176.208 1017.84 176.34C1018.24 176.407 1018.34 176.606 1018.14 176.938C1015.95 180.057 1012.23 185.532 1006.98 193.364C1002.26 200.664 999.697 205.874 999.298 208.993C998.966 210.984 999.531 211.98 1000.99 211.98C1003.52 211.98 1008.17 209.226 1014.95 203.717C1021 198.872 1025.05 195.156 1027.11 192.567C1027.38 192.235 1027.75 192.07 1028.21 192.07C1029.01 192.07 1029.41 192.401 1029.41 193.065C1029.41 193.463 1029.17 193.895 1028.71 194.359Z" fill="white" fill-opacity="0.3"/>
<path d="M1069.55 153.941C1067.36 156.861 1063.07 162.934 1056.69 172.159H1063.97C1064.77 172.159 1065.23 172.358 1065.37 172.756C1065.43 173.155 1065.17 173.586 1064.57 174.051C1063.97 174.515 1063.27 174.747 1062.48 174.747H1054.9C1053.77 176.539 1051.94 179.294 1049.42 183.01C1040.84 195.819 1036.19 204.48 1035.46 208.993C1035.06 210.984 1035.66 211.98 1037.25 211.98C1037.78 211.98 1038.35 211.847 1038.95 211.582C1042.2 210.321 1046.26 207.699 1051.11 203.717C1057.16 198.872 1061.21 195.156 1063.27 192.567C1063.94 191.704 1064.64 191.671 1065.37 192.468C1065.7 192.932 1065.53 193.563 1064.87 194.359C1062.01 197.81 1057.52 201.826 1051.41 206.405C1042.64 212.909 1036.55 215.929 1033.17 215.464C1029.51 215 1027.68 213.042 1027.68 209.591C1027.68 208.861 1027.78 208.064 1027.98 207.201C1028.78 203.817 1030.47 200.1 1033.07 196.052C1034.73 193.53 1038.25 188.718 1043.63 181.617C1044.76 180.09 1046.49 177.8 1048.82 174.747H1041.84C1040.97 174.747 1040.54 174.515 1040.54 174.051C1040.48 173.586 1040.74 173.155 1041.34 172.756C1041.94 172.358 1042.64 172.159 1043.43 172.159H1050.81C1058.99 161.607 1064.17 155.467 1066.36 153.742C1067.23 153.012 1068.23 152.879 1069.36 153.344C1069.69 153.476 1069.75 153.676 1069.55 153.941Z" fill="white" fill-opacity="0.3"/>
<path d="M1152.19 153.941C1150 156.861 1145.71 162.934 1139.33 172.159H1146.61C1147.41 172.159 1147.87 172.358 1148.01 172.756C1148.07 173.155 1147.81 173.586 1147.21 174.051C1146.61 174.515 1145.91 174.747 1145.12 174.747H1137.54C1136.41 176.539 1134.58 179.294 1132.06 183.01C1123.48 195.819 1118.83 204.48 1118.1 208.993C1117.7 210.984 1118.3 211.98 1119.89 211.98C1120.42 211.98 1120.99 211.847 1121.59 211.582C1124.84 210.321 1128.9 207.699 1133.75 203.717C1139.8 198.872 1143.85 195.156 1145.91 192.567C1146.58 191.704 1147.28 191.671 1148.01 192.468C1148.34 192.932 1148.17 193.563 1147.51 194.359C1144.65 197.81 1140.16 201.826 1134.05 206.405C1125.28 212.909 1119.19 215.929 1115.8 215.464C1112.15 215 1110.32 213.042 1110.32 209.591C1110.32 208.861 1110.42 208.064 1110.62 207.201C1111.42 203.817 1113.11 200.1 1115.71 196.052C1117.37 193.53 1120.89 188.718 1126.27 181.617C1127.4 180.09 1129.13 177.8 1131.46 174.747H1124.48C1123.61 174.747 1123.18 174.515 1123.18 174.051C1123.12 173.586 1123.38 173.155 1123.98 172.756C1124.58 172.358 1125.28 172.159 1126.07 172.159H1133.45C1141.63 161.607 1146.81 155.467 1149 153.742C1149.87 153.012 1150.87 152.879 1151.99 153.344C1152.33 153.476 1152.39 153.676 1152.19 153.941Z" fill="white" fill-opacity="0.3"/>
<path d="M1203.91 193.961C1198.59 200.332 1193.77 204.082 1189.45 205.21C1187.59 205.741 1185.86 206.007 1184.27 206.007C1181.94 206.007 1179.95 205.476 1178.28 204.414C1174.5 208.131 1170.47 211.15 1166.22 213.473C1162.03 215.73 1158.31 216.858 1155.06 216.858C1150.14 216.858 1147.68 214.469 1147.68 209.69C1147.68 205.775 1149.44 201.228 1152.96 196.052C1156.88 190.344 1161.8 185.466 1167.72 181.417C1173.63 177.303 1178.82 175.245 1183.27 175.245C1188.19 175.245 1190.65 177.634 1190.65 182.413C1190.65 186.329 1188.89 190.875 1185.36 196.052C1183.9 198.175 1182.27 200.233 1180.48 202.224C1181.94 203.087 1183.37 203.518 1184.76 203.518C1186.03 203.518 1187.49 203.253 1189.15 202.722C1193.01 201.527 1197.23 198.209 1201.81 192.766C1202.28 192.302 1202.74 192.07 1203.21 192.07C1203.94 192.07 1204.31 192.401 1204.31 193.065C1204.31 193.397 1204.17 193.696 1203.91 193.961ZM1183.67 193.065C1186.13 188.884 1187.36 185.366 1187.36 182.512C1187.36 179.46 1185.99 177.933 1183.27 177.933C1180.28 177.933 1176.59 179.625 1172.2 183.01C1167.82 186.395 1163.99 190.477 1160.74 195.255C1157.28 200.366 1155.55 204.646 1155.55 208.097C1155.55 211.15 1156.95 212.677 1159.74 212.677C1164.19 212.677 1169.58 209.425 1175.89 202.921C1174.1 201.461 1173.2 199.835 1173.2 198.043C1173.2 196.45 1173.86 195.122 1175.19 194.061C1176.79 192.866 1178.58 192.269 1180.58 192.269C1181.91 192.269 1182.94 192.534 1183.67 193.065Z" fill="white" fill-opacity="0.3"/>
<path d="M1259.72 193.662C1257.73 196.583 1252.65 201.162 1244.47 207.401C1239.29 211.383 1233.07 214.668 1225.83 217.256C1220.91 224.955 1216.46 231.393 1212.47 236.569C1208.48 241.746 1204.19 245.728 1199.61 248.516C1195.75 250.839 1192.36 252 1189.44 252C1186.45 252 1184.95 250.606 1184.95 247.819C1184.95 245.562 1185.91 242.841 1187.84 239.656C1189.7 236.536 1192.3 233.483 1195.62 230.497C1201.87 225.055 1210.37 220.376 1221.14 216.46C1223.2 212.478 1224.83 209.126 1226.03 206.405C1220.31 212.644 1215.43 215.663 1211.37 215.464C1207.25 215.265 1205.19 212.743 1205.19 207.898C1205.19 203.385 1207.32 198.441 1211.57 193.065C1215.82 187.689 1220.88 183.243 1226.72 179.725C1232.11 176.606 1236.66 175.046 1240.38 175.046C1241.98 175.046 1243.24 175.411 1244.17 176.141C1245.1 176.871 1245.47 177.999 1245.27 179.526C1246.8 177.999 1247.73 177.103 1248.06 176.838C1248.39 176.573 1248.86 176.407 1249.46 176.34C1250.12 176.208 1250.65 176.208 1251.05 176.34C1251.45 176.407 1251.55 176.606 1251.35 176.938C1250.42 178.265 1242.64 190.543 1228.02 213.772C1234.8 210.918 1239.95 208.131 1243.47 205.41C1249.72 200.631 1254.51 196.251 1257.83 192.269C1258.23 191.87 1258.79 191.87 1259.52 192.269C1260.12 192.6 1260.19 193.065 1259.72 193.662ZM1241.78 183.707C1242.58 182.712 1242.97 181.55 1242.97 180.223C1242.97 178.232 1242.01 177.236 1240.08 177.236C1238.02 177.236 1235.4 178.265 1232.21 180.322C1228.75 182.512 1225.43 185.433 1222.24 189.083C1215.06 197.18 1211.47 203.883 1211.47 209.193C1211.47 211.449 1212.23 212.577 1213.76 212.577C1215.49 212.577 1218.22 210.785 1221.94 207.201C1225.06 204.215 1227.89 201.029 1230.41 197.644C1233.6 193.397 1237.39 188.751 1241.78 183.707ZM1219.65 219.446C1211.2 222.698 1204.33 226.614 1199.01 231.194C1196.42 233.516 1194.22 236.072 1192.43 238.859C1190.63 241.713 1189.74 244.069 1189.74 245.927C1189.74 247.852 1190.57 248.814 1192.23 248.814C1194.16 248.814 1196.72 247.686 1199.91 245.43C1203.43 242.841 1206.65 239.622 1209.58 235.773C1212.57 231.924 1215.92 226.481 1219.65 219.446Z" fill="white" fill-opacity="0.3"/>
<path d="M1310.17 192.169C1310.84 192.7 1310.67 193.563 1309.68 194.757C1306.49 198.54 1301.4 202.888 1294.42 207.799C1286.05 213.706 1278.5 216.659 1271.79 216.659C1269.26 216.659 1267.14 216.128 1265.41 215.066C1262.68 213.341 1261.32 210.686 1261.32 207.102C1261.32 201.195 1264.48 194.99 1270.79 188.486C1274.65 184.57 1278.94 181.351 1283.65 178.829C1288.37 176.307 1292.33 175.046 1295.52 175.046C1298.51 175.046 1300 175.942 1300 177.734C1300 179.526 1298.48 182.114 1295.42 185.499C1292.69 188.419 1289.84 190.941 1286.84 193.065C1281.73 196.715 1276.31 199.138 1270.59 200.332C1269.93 202.39 1269.6 204.215 1269.6 205.808C1269.6 208.33 1270.43 210.188 1272.09 211.383C1273.55 212.378 1275.28 212.876 1277.27 212.876C1281.66 212.876 1286.88 210.719 1292.93 206.405C1298.78 202.224 1303.69 197.844 1307.68 193.264C1308.81 192.07 1309.64 191.704 1310.17 192.169ZM1295.92 177.236C1294.12 177.236 1291.53 178.232 1288.14 180.223C1284.55 182.347 1281.23 184.968 1278.17 188.087C1275.58 190.742 1273.42 193.961 1271.69 197.744C1276.21 196.549 1280.76 194.359 1285.35 191.174C1288.27 189.116 1291.03 186.76 1293.62 184.105C1296.28 181.451 1297.61 179.526 1297.61 178.331C1297.61 177.601 1297.05 177.236 1295.92 177.236Z" fill="white" fill-opacity="0.3"/>
<path d="M1350.77 153.941C1348.58 156.861 1344.29 162.934 1337.91 172.159H1345.19C1345.99 172.159 1346.45 172.358 1346.58 172.756C1346.65 173.155 1346.38 173.586 1345.79 174.051C1345.19 174.515 1344.49 174.747 1343.69 174.747H1336.12C1334.99 176.539 1333.16 179.294 1330.63 183.01C1322.06 195.819 1317.41 204.48 1316.67 208.993C1316.28 210.984 1316.87 211.98 1318.47 211.98C1319 211.98 1319.57 211.847 1320.16 211.582C1323.42 210.321 1327.48 207.699 1332.33 203.717C1338.38 198.872 1342.43 195.156 1344.49 192.567C1345.15 191.704 1345.85 191.671 1346.58 192.468C1346.92 192.932 1346.75 193.563 1346.09 194.359C1343.23 197.81 1338.74 201.826 1332.63 206.405C1323.85 212.909 1317.77 215.929 1314.38 215.464C1310.73 215 1308.9 213.042 1308.9 209.591C1308.9 208.861 1309 208.064 1309.2 207.201C1309.99 203.817 1311.69 200.1 1314.28 196.052C1315.94 193.53 1319.47 188.718 1324.85 181.617C1325.98 180.09 1327.71 177.8 1330.03 174.747H1323.06C1322.19 174.747 1321.76 174.515 1321.76 174.051C1321.69 173.586 1321.96 173.155 1322.56 172.756C1323.15 172.358 1323.85 172.159 1324.65 172.159H1332.03C1340.2 161.607 1345.39 155.467 1347.58 153.742C1348.44 153.012 1349.44 152.879 1350.57 153.344C1350.9 153.476 1350.97 153.676 1350.77 153.941Z" fill="white" fill-opacity="0.3"/>
<path d="M1404.68 137.117C1404.68 139.838 1403.15 143.687 1400.09 148.665C1397.37 153.111 1394.37 156.994 1391.12 160.312C1385.07 166.418 1379.15 170.765 1373.37 173.354C1370.91 176.871 1368.65 180.057 1366.59 182.911C1372.57 178.199 1377.63 175.842 1381.75 175.842C1385.54 175.842 1387.43 177.469 1387.43 180.721C1387.43 183.84 1385.83 187.225 1382.64 190.875C1374.47 200.166 1370.12 206.538 1369.58 209.989C1369.52 210.586 1369.68 211.084 1370.08 211.482C1370.48 211.814 1371.15 211.914 1372.08 211.781C1374.6 211.449 1378.76 209.027 1384.54 204.514C1389.32 200.731 1393.58 196.881 1397.3 192.965C1397.83 192.302 1398.4 191.97 1398.99 191.97C1399.46 191.97 1399.76 192.202 1399.89 192.667C1400.02 193.198 1399.82 193.729 1399.29 194.26C1396.63 197.512 1392.61 201.195 1387.23 205.31C1378.52 211.88 1372.44 215.232 1368.99 215.365C1367.06 215.365 1365.33 214.834 1363.8 213.772C1362.27 212.644 1361.44 211.117 1361.31 209.193C1361.18 205.277 1364 200.863 1369.78 195.952C1379.02 188.187 1383.64 182.844 1383.64 179.924C1383.64 178.663 1382.84 178.033 1381.25 178.033C1379.25 178.033 1376.23 179.393 1372.18 182.114C1365.66 186.495 1360.74 190.908 1357.42 195.355C1352.7 202.058 1347.72 208.794 1342.47 215.564C1341.87 215.697 1341.1 215.597 1340.17 215.265C1339.18 214.933 1338.71 214.568 1338.78 214.17C1338.91 213.108 1343.6 206.372 1352.83 193.961C1356.02 189.647 1362.31 180.754 1371.68 167.281C1379.52 156.065 1385.9 147.304 1390.82 140.999C1394.67 136.088 1398.2 133.632 1401.39 133.632C1403.58 133.632 1404.68 134.794 1404.68 137.117ZM1400.39 137.614C1398.06 137.614 1392.91 143.72 1384.94 155.932L1376.46 168.575C1380.38 166.584 1384.77 163.199 1389.62 158.421C1392.61 155.501 1395.34 152.016 1397.8 147.968C1400.26 143.919 1401.49 140.966 1401.49 139.108C1401.49 138.112 1401.12 137.614 1400.39 137.614Z" fill="white" fill-opacity="0.3"/>
<path d="M1450.2 192.169C1450.86 192.7 1450.7 193.563 1449.7 194.757C1446.51 198.54 1441.42 202.888 1434.45 207.799C1426.07 213.706 1418.53 216.659 1411.81 216.659C1409.29 216.659 1407.16 216.128 1405.43 215.066C1402.71 213.341 1401.35 210.686 1401.35 207.102C1401.35 201.195 1404.5 194.99 1410.82 188.486C1414.67 184.57 1418.96 181.351 1423.68 178.829C1428.4 176.307 1432.35 175.046 1435.54 175.046C1438.53 175.046 1440.03 175.942 1440.03 177.734C1440.03 179.526 1438.5 182.114 1435.44 185.499C1432.72 188.419 1429.86 190.941 1426.87 193.065C1421.75 196.715 1416.33 199.138 1410.62 200.332C1409.95 202.39 1409.62 204.215 1409.62 205.808C1409.62 208.33 1410.45 210.188 1412.11 211.383C1413.58 212.378 1415.3 212.876 1417.3 212.876C1421.68 212.876 1426.9 210.719 1432.95 206.405C1438.8 202.224 1443.72 197.844 1447.71 193.264C1448.84 192.07 1449.67 191.704 1450.2 192.169ZM1435.94 177.236C1434.15 177.236 1431.55 178.232 1428.17 180.223C1424.58 182.347 1421.25 184.968 1418.2 188.087C1415.6 190.742 1413.44 193.961 1411.72 197.744C1416.23 196.549 1420.79 194.359 1425.37 191.174C1428.3 189.116 1431.06 186.76 1433.65 184.105C1436.31 181.451 1437.64 179.526 1437.64 178.331C1437.64 177.601 1437.07 177.236 1435.94 177.236Z" fill="white" fill-opacity="0.3"/>
<path d="M1497.57 194.16C1495.38 196.682 1491.09 200.531 1484.71 205.708C1476.74 212.146 1469.86 215.497 1464.08 215.763C1458.63 215.962 1455.9 214.27 1455.9 210.686C1455.9 207.301 1458.19 203.783 1462.78 200.133C1464.84 198.54 1467.1 196.981 1469.56 195.454C1472.35 193.795 1474.28 192.567 1475.34 191.771C1478.73 189.249 1480.29 187.191 1480.03 185.599C1479.83 184.669 1479.16 183.84 1478.03 183.11C1476.84 182.579 1475.67 182.015 1474.54 181.417C1473.75 181.019 1473.02 180.488 1472.35 179.825C1470.56 182.015 1467.93 185.2 1464.47 189.382C1460.55 193.961 1457.56 197.113 1455.5 198.839C1454.77 199.436 1454.14 199.735 1453.61 199.735C1453.01 199.735 1452.68 199.503 1452.61 199.038C1452.54 198.507 1452.84 197.976 1453.51 197.445C1454.84 196.317 1458.06 192.833 1463.18 186.992C1467.7 181.816 1470.09 178.597 1470.36 177.336C1469.83 176.274 1469.69 175.179 1469.96 174.051C1470.56 171.86 1471.69 170.765 1473.35 170.765C1475.28 170.765 1476.07 171.894 1475.74 174.15C1475.54 175.212 1474.98 176.274 1474.05 177.336C1474.18 177.668 1474.91 178.265 1476.24 179.128C1477.57 179.924 1478.93 180.654 1480.33 181.318C1482.05 182.512 1482.82 184.072 1482.62 185.997C1482.35 188.32 1480.26 191.638 1476.34 195.952C1472.88 199.602 1469.46 203.253 1466.07 206.903C1464.28 209.027 1463.61 210.819 1464.08 212.279C1464.21 212.61 1464.51 212.81 1464.97 212.876C1466.44 213.141 1468.89 212.445 1472.35 210.785C1475.81 209.126 1479.33 206.903 1482.92 204.115C1487.7 200.465 1491.83 196.748 1495.28 192.965C1495.75 192.435 1496.25 192.169 1496.78 192.169C1497.57 192.169 1497.97 192.534 1497.97 193.264C1497.97 193.53 1497.84 193.828 1497.57 194.16Z" fill="white" fill-opacity="0.3"/>
<path d="M1602.38 142.791L1561.8 204.016H1558.61L1595.2 142.791H1602.38ZM1556.02 215.066C1554.16 215.066 1553.23 214.104 1553.23 212.179C1553.23 210.918 1553.73 209.757 1554.72 208.695C1555.72 207.633 1556.85 207.102 1558.11 207.102C1559.97 207.102 1560.9 208.064 1560.9 209.989C1560.9 211.25 1560.4 212.411 1559.41 213.473C1558.41 214.535 1557.28 215.066 1556.02 215.066Z" fill="white" fill-opacity="0.3"/>
<path d="M1663.75 142.791L1623.18 204.016H1619.99L1656.58 142.791H1663.75ZM1617.39 215.066C1615.53 215.066 1614.6 214.104 1614.6 212.179C1614.6 210.918 1615.1 209.757 1616.1 208.695C1617.1 207.633 1618.23 207.102 1619.49 207.102C1621.35 207.102 1622.28 208.064 1622.28 209.989C1622.28 211.25 1621.78 212.411 1620.78 213.473C1619.79 214.535 1618.66 215.066 1617.39 215.066Z" fill="white" fill-opacity="0.3"/>
</svg>
